<?xml version="1.0" encoding="UTF-8" standalone="yes"?>
<!-- Created with sK1/UniConvertor (http://sk1project.org/) -->
<svg xmlns="http://www.w3.org/2000/svg" xmlns:xlink="http://www.w3.org/1999/xlink"
  width="287.2pt" height="252.8pt" viewBox="0 0 287.2 252.8"
  fill-rule="evenodd">
<g>
<path style="stroke:none; fill:transparent" d="M 0 0L 0 252.8L 287.2 252.8L 287.2 0L 0 0z"/>
<path style="stroke:none; fill:#ff8575" d="M 129.6 75.2L 107.2 75.2C 106.31 58.741 78.7928 56.013 76.171 72.8C 75.3615 77.9828 75.5459 84.3872 79.0315 88.5592C 87.9336 99.2152 104.291 93.0072 107.2 80.8C 112.521 80.8 123.194 78.751 127.778 81.6224C 130.358 83.2384 130.839 87.208 132.519 89.5992C 135.986 94.536 141.319 97.5184 147.2 98.4L 147.2 120.8C 136.756 122.43 130.494 135.095 135.658 144.697C 140.608 153.902 155.238 153.897 162.314 147.688C 168.391 142.354 167.489 131.24 162.294 125.635C 160.119 123.29 156.126 122.248 154.422 119.666C 152.209 116.31 152.779 104.705 153.854 100.887C 155.203 96.0984 164.71 94.6104 167.585 89.6C 170.486 84.5464 171.736 79.4337 170.969 73.6C 170.51 70.1154 167.685 65.7695 169.106 62.4031C 171.092 57.7029 181.912 46.7783 186.861 45.808C 192.865 44.6308 197.705 48.6302 203.996 44.7932C 211.988 39.9198 214.153 29.3154 209.153 21.6123C 203.918 13.5486 191.56 11.975 184.261 18.2315C 176.957 24.4918 181.308 31.5171 180.428 39.2C 179.85 44.2435 168.008 55.9871 163.2 57.6772C 159.801 58.8719 154.859 56.0858 151.2 56.0123C 146.444 55.9169 142.248 58.6211 137.828 58.6839C 134.198 58.7356 126.308 51.0558 124.742 47.9883C 122.117 42.8505 126.41 36.7613 121.878 31.4722C 116.58 25.2884 106.338 27.7492 102.182 33.8315C 97.6048 40.5297 101.978 50.7481 109.6 52.4846C 113.69 53.4166 118.03 51.1193 121.6 53.8018C 131.506 61.2465 129.825 64.654 129.6 75.2z"/>
<path style="stroke:none; fill:#e79595" d="M 179.2 25.6L 179.2 28L 180 28C 179.799 26.8388 179.748 26.5986 179.2 25.6z"/>
<path style="stroke:none; fill:#eb918d" d="M 178.4 28C 178.422 30.7374 178.7 33.3094 179.2 36L 180 36C 179.784 33.2715 179.521 30.4966 178.4 28z"/>
<path style="stroke:none; fill:#f39287" d="M 103.2 32.8C 104.366 31.9173 104.718 31.5653 105.6 30.4C 103.901 31.1194 103.919 31.1011 103.2 32.8z"/>
<path style="stroke:none; fill:#ed9f9a" d="M 209.066 38.9334C 209.022 38.9778 208.978 39.8223 209.334 39.4666C 209.378 39.4222 209.422 38.5778 209.066 38.9334z"/>
<path style="stroke:none; fill:#e19399" d="M 100 39.2L 100 41.6L 100.8 41.6C 100.599 40.4386 100.548 40.1987 100 39.2z"/>
<path style="stroke:none; fill:#dd9da3" d="M 198.134 46.6666C 197.778 47.0222 198.622 46.9778 198.666 46.9334C 199.022 46.5779 198.178 46.6222 198.134 46.6666z"/>
<path style="stroke:none; fill:#e19fa3" d="M 148 61.6L 148 62.4L 152 62.4C 150.585 61.7769 149.571 61.6701 148 61.6z"/>
<path style="stroke:none; fill:#ffffff" d="M 144.8 62.9222C 126.516 68.6552 136.846 98.0312 155.2 91.5096C 174.314 84.7168 163.869 56.9432 144.8 62.9222z"/>
<path style="stroke:none; fill:#f59a8f" d="M 135.2 70.4C 134.551 73.8954 134.4 77.251 134.4 80.8L 135.2 80.8C 135.21 77.4639 136.313 73.5033 135.2 70.4z"/>
<path style="stroke:none; fill:#e79f9f" d="M 75.2 73.6L 75.2 82.4L 76 82.4C 76 79.4398 76.3522 76.3459 75.2 73.6z"/>
<path style="stroke:none; fill:#dd939f" d="M 128.8 73.6C 122.172 75.559 114.091 74.4 107.2 74.4L 107.2 75.2L 124 75.2C 125.62 75.2 129.716 75.819 128.8 73.6z"/>
<path style="stroke:none; fill:#f3938d" d="M 105.6 83.2L 105.6 85.6L 106.4 85.6L 107.2 83.2L 105.6 83.2z"/>
<path style="stroke:none; fill:#ed9f9a" d="M 169.066 86.1336C 169.022 86.1776 168.978 87.0224 169.334 86.6664C 169.378 86.6224 169.422 85.7776 169.066 86.1336z"/>
<path style="stroke:none; fill:#e79f9f" d="M 168.266 87.7336C 168.222 87.7776 168.178 88.6224 168.534 88.2664C 168.578 88.2224 168.622 87.3776 168.266 87.7336z"/>
<path style="stroke:none; fill:#e99292" d="M 133.6 133.6L 133.6 140L 134.4 140C 134.394 137.732 134.478 135.69 133.6 133.6z"/>
<path style="stroke:none; fill:#f3938d" d="M 137.6 147.2C 138.578 148.156 138.736 148.253 140 148.8C 139.022 147.844 138.864 147.747 137.6 147.2z"/>
<path style="stroke:none; fill:#92bdff" d="M 8.59384 172.822C 1.28819 178.733 13.5701 188.186 19.5173 182.594C 26.4556 176.071 14.7193 167.866 8.59384 172.822M 160.482 177.622C 157.649 179.866 159.2 188.73 159.2 192C 159.2 204.814 157.264 219.347 159.318 231.985C 160 236.174 166.036 237.386 169.346 235.178C 172.673 232.958 171.2 225.05 171.2 221.6C 171.2 209.083 174.498 191.283 170.946 179.318C 169.985 176.082 162.826 175.766 160.482 177.622M 182.882 177.622C 180.137 179.797 181.6 188.05 181.6 191.2L 181.6 221.6C 181.6 225.17 180.533 230.887 182.194 234.146C 183.686 237.071 190.387 236.536 192.546 234.718C 195.699 232.06 194.4 225.266 194.4 221.6C 194.4 209.27 197.843 191.021 194.053 179.318C 192.985 176.021 185.306 175.702 182.882 177.622M 258.4 192C 250.688 192.427 250.688 202.773 258.4 203.2L 258.4 225.6C 258.4 228.245 257.615 232.65 259.682 234.718C 262.264 237.298 269.102 236.412 270.146 232.713C 272.559 224.161 270.4 212.097 270.4 203.2C 282.257 203.191 282.344 192.01 270.4 192C 270.4 187.246 270.954 182.181 269.6 177.6C 259.954 179.811 258.4 182.436 258.4 192M 26.4 183.2L 42.5734 226.4C 44.6243 232.086 48.1792 239.054 55.6877 235.518C 60.5232 233.239 61.5315 223.281 64.8 219.2C 66.2008 225.255 70.1945 241.242 79.6679 235.181C 83.584 232.675 84.908 224.862 86.4408 220.8C 90.9576 208.828 99.6384 195.778 101.6 183.2C 98.1128 183.2 91.4656 181.918 88.5192 184.022C 79.9794 190.122 81.7664 208.385 74.4 216C 74.185 211.069 71.0708 206.18 71.1432 201.464C 71.2288 195.89 74.835 188.847 76 183.2C 72.5014 183.2 65.994 181.946 63.1031 184.254C 60.815 186.082 60.6338 190.189 59.8358 192.8C 57.481 200.506 53.9802 207.978 52.8 216C 46.2818 209.982 42.0163 191.891 40 183.2L 26.4 183.2M 136 229.6C 137.818 235.698 148.328 239.922 149.494 231.196C 150.847 221.059 152.05 203.493 149.346 193.647C 147.443 186.721 139.55 191.271 138.4 196C 132.587 194.071 129.076 189.207 122.4 190.084C 118.517 190.594 115.346 191.794 112.003 193.818C 86.9088 209.014 113.135 250.454 136 229.6M 211.2 232C 215.155 232.243 218.399 234.915 222.4 235.381C 229.825 236.245 234.801 233.195 241.6 231.2C 242.977 213.158 217.822 235.173 215.2 216L 236.8 216C 239.128 216 243.158 216.73 245.118 215.178C 250.265 211.101 243.554 198.63 239.916 195.8C 222.451 182.21 200.724 195.178 203.347 216.8C 204.122 223.19 208.663 226.554 211.2 232M 9.05432 191.222C 5.93594 193.303 7.2 199.991 7.2 203.2C 7.2 211.92 4.8851 224.463 7.61111 232.753C 8.93496 236.778 15.831 237.079 18.9457 234.946C 22.0494 232.819 20.8 226.436 20.8 223.2C 20.8 214.252 22.9134 202.269 20.5457 193.647C 19.4671 189.719 12.0503 189.223 9.05432 191.222z"/>
<path style="stroke:none; fill:#ffffff" d="M 215.2 206.4C 221.15 208.159 228.217 207.2 234.4 207.2C 231.635 195.67 220 198.487 215.2 206.4M 122.4 200.523C 108.44 204.501 113.261 228.713 128 224.156C 141.458 219.995 136.194 196.592 122.4 200.523z"/>
<path style="stroke:none; fill:#cfcde3" d="M 246.666 206.934C 246.622 206.978 246.578 207.822 246.934 207.466C 246.978 207.422 247.022 206.578 246.666 206.934z"/>
</g>
</svg>