<svg id="svg" version="1.1" xmlns="http://www.w3.org/2000/svg" xmlns:xlink="http://www.w3.org/1999/xlink" width="400" height="124.79108635097494" viewBox="0, 0, 400,124.79108635097494"><g id="svgg"><path id="path0" d="M10.676 11.964 C 10.757 12.765,10.649 14.009,10.508 13.921 C 10.420 13.867,10.156 13.871,9.921 13.930 L 9.493 14.038 9.504 20.700 C 9.514 26.867,9.535 27.346,9.789 27.139 C 9.985 26.981,10.028 26.977,9.939 27.125 C 9.852 27.270,9.943 27.333,10.240 27.333 C 10.605 27.333,10.667 27.407,10.667 27.844 C 10.667 28.230,10.738 28.347,10.958 28.325 C 12.384 28.180,12.833 28.318,12.833 28.901 L 12.833 29.468 14.458 29.443 L 16.083 29.417 16.136 28.875 L 16.188 28.333 19.001 28.333 C 21.800 28.333,21.814 28.335,21.744 28.696 C 21.613 29.376,21.893 29.470,24.091 29.478 L 26.167 29.486 26.167 28.910 C 26.167 28.336,26.170 28.333,26.958 28.314 C 28.158 28.285,28.247 28.266,28.270 28.042 C 28.282 27.927,28.302 27.740,28.314 27.625 C 28.326 27.510,28.523 27.330,28.752 27.224 C 28.980 27.118,29.126 27.098,29.075 27.180 C 29.024 27.262,29.097 27.286,29.236 27.232 C 29.459 27.147,29.486 26.261,29.453 20.026 L 29.417 12.917 28.875 12.864 C 28.380 12.817,28.333 12.763,28.333 12.245 L 28.333 11.679 19.491 11.679 C 11.240 11.679,10.650 11.698,10.676 11.964 M222.621 18.451 C 222.458 18.492,222.336 18.614,222.349 18.721 C 222.429 19.370,222.325 19.500,221.730 19.500 C 221.183 19.500,221.148 19.527,221.355 19.782 C 221.511 19.975,221.518 20.024,221.374 19.938 C 221.207 19.838,221.166 27.775,221.167 59.740 L 221.169 99.667 221.751 99.667 C 222.324 99.667,222.428 99.803,222.348 100.447 C 222.335 100.556,222.570 100.668,222.870 100.697 C 223.281 100.737,223.421 100.833,223.434 101.083 C 223.443 101.267,223.462 101.510,223.475 101.625 C 223.495 101.788,224.945 101.833,230.101 101.833 C 235.999 101.833,236.692 101.806,236.603 101.575 C 236.542 101.416,236.572 101.358,236.682 101.426 C 236.794 101.496,236.840 101.390,236.805 101.143 C 236.758 100.805,236.829 100.742,237.309 100.696 C 237.821 100.647,237.862 100.603,237.797 100.163 C 237.732 99.718,237.770 99.680,238.322 99.633 L 238.917 99.583 238.957 59.542 L 238.998 19.500 238.354 19.500 C 237.742 19.500,237.713 19.476,237.767 19.018 C 237.811 18.636,237.746 18.516,237.453 18.439 C 237.026 18.327,223.065 18.338,222.621 18.451 M254.083 18.477 C 253.808 18.537,253.574 18.680,253.563 18.793 C 253.551 18.907,253.532 19.112,253.521 19.250 C 253.508 19.410,253.326 19.500,253.018 19.500 C 252.731 19.500,252.494 19.607,252.434 19.765 C 252.143 20.523,252.333 98.983,252.626 99.172 C 252.896 99.345,252.895 99.352,252.611 99.262 C 252.411 99.200,252.330 99.238,252.375 99.375 C 252.442 99.573,252.532 99.603,253.208 99.647 C 253.454 99.664,253.500 99.837,253.500 100.750 L 253.500 101.833 260.550 101.833 C 268.016 101.833,268.000 101.835,268.000 101.050 C 268.000 100.734,268.089 100.667,268.507 100.667 C 268.816 100.667,269.004 100.585,268.988 100.458 C 268.909 99.850,269.019 99.686,269.542 99.636 C 270.018 99.590,270.090 99.518,270.136 99.042 C 270.181 98.571,270.249 98.500,270.658 98.500 C 271.363 98.500,271.330 100.439,271.329 59.208 L 271.329 20.667 270.748 20.667 L 270.167 20.667 270.167 19.603 C 270.167 18.657,270.127 18.529,269.811 18.446 C 269.311 18.315,254.692 18.344,254.083 18.477 M372.760 19.784 C 372.709 19.918,372.667 20.171,372.667 20.347 C 372.667 20.641,372.532 20.667,370.986 20.667 L 369.306 20.667 369.387 21.263 L 369.467 21.860 367.275 21.827 C 364.631 21.788,364.744 21.775,365.000 22.083 C 365.163 22.280,365.164 22.333,365.003 22.333 C 364.889 22.333,364.840 22.445,364.894 22.583 C 364.973 22.791,364.792 22.833,363.828 22.833 L 362.667 22.833 362.667 23.417 C 362.667 23.968,362.636 24.000,362.104 24.000 C 361.580 24.000,361.544 24.035,361.583 24.500 C 361.625 24.993,361.615 25.000,360.813 25.000 C 360.292 25.000,360.000 25.072,360.000 25.200 C 360.000 25.356,359.956 25.356,359.800 25.200 C 359.690 25.090,359.543 25.000,359.473 25.000 C 359.403 25.000,359.342 28.239,359.337 32.197 C 359.332 36.156,359.307 39.416,359.282 39.441 C 359.256 39.466,358.017 39.496,356.527 39.508 C 354.111 39.528,353.820 39.560,353.845 39.807 C 353.926 40.635,353.885 40.667,352.732 40.667 C 351.822 40.667,351.648 40.710,351.727 40.917 C 351.780 41.054,351.755 41.167,351.672 41.167 C 351.446 41.167,351.443 54.945,351.669 55.085 C 351.767 55.146,351.972 55.095,352.123 54.973 C 352.319 54.814,352.361 54.810,352.272 54.958 C 352.178 55.115,352.382 55.167,353.101 55.167 C 353.626 55.167,354.006 55.216,353.946 55.276 C 353.886 55.337,353.920 55.487,354.022 55.610 C 354.158 55.774,354.158 55.833,354.020 55.833 C 353.918 55.833,353.833 55.913,353.833 56.010 C 353.833 56.108,353.965 56.174,354.125 56.158 C 354.285 56.142,355.523 56.137,356.875 56.147 L 359.333 56.167 359.333 77.917 L 359.333 99.667 359.906 99.667 C 360.406 99.667,360.484 99.724,360.531 100.125 C 360.573 100.490,360.687 100.600,361.090 100.667 C 361.472 100.730,361.600 100.842,361.613 101.125 C 361.622 101.331,361.638 101.576,361.648 101.669 C 361.680 101.957,373.703 101.808,373.799 101.518 C 373.843 101.388,373.801 101.334,373.704 101.394 C 373.597 101.460,373.604 101.342,373.724 101.085 C 373.907 100.690,374.736 100.517,375.792 100.654 C 375.919 100.671,376.000 100.483,376.000 100.174 C 376.000 99.724,376.055 99.667,376.490 99.667 C 377.044 99.667,377.326 99.370,376.980 99.151 C 376.813 99.045,376.807 99.004,376.958 99.003 C 377.124 99.001,377.167 94.604,377.167 77.583 L 377.167 56.167 381.917 56.146 C 387.444 56.122,387.078 56.141,387.104 55.875 C 387.116 55.760,387.134 55.563,387.146 55.435 C 387.157 55.308,387.429 55.155,387.750 55.094 C 388.260 54.999,388.333 54.923,388.333 54.492 C 388.333 54.056,388.391 54.000,388.833 54.000 L 389.333 54.000 389.333 52.917 C 389.333 51.782,389.303 51.823,390.167 51.766 C 390.434 51.748,390.637 43.026,390.370 42.979 C 390.304 42.967,390.079 42.940,389.870 42.918 C 389.380 42.867,389.324 42.802,389.280 42.231 C 389.251 41.852,389.163 41.756,388.841 41.753 C 388.527 41.751,388.408 41.629,388.295 41.197 C 388.172 40.722,388.088 40.652,387.701 40.697 C 387.299 40.744,387.241 40.686,387.167 40.167 L 387.083 39.583 382.171 39.532 C 379.470 39.504,377.239 39.462,377.215 39.437 C 377.191 39.413,377.168 35.176,377.164 30.021 L 377.156 20.648 376.684 20.723 C 376.073 20.819,375.917 20.692,375.917 20.102 L 375.917 19.620 374.385 19.580 C 373.169 19.548,372.834 19.590,372.760 19.784 M36.407 27.461 C 36.227 27.586,36.144 29.490,36.320 29.471 C 37.116 29.385,37.333 29.514,37.333 30.069 C 37.333 30.383,37.427 30.677,37.542 30.723 C 37.708 30.790,37.708 30.810,37.542 30.820 C 36.977 30.856,37.332 31.667,37.913 31.667 L 38.492 31.667 38.538 34.458 L 38.583 37.250 39.042 37.243 C 39.516 37.237,39.597 37.551,39.531 39.125 C 39.518 39.456,39.597 39.500,40.200 39.500 L 40.884 39.500 40.782 41.167 L 40.681 42.833 41.257 42.833 L 41.833 42.833 41.833 43.917 L 41.833 45.000 42.427 45.000 L 43.021 45.000 42.986 46.336 C 42.966 47.071,42.999 47.721,43.057 47.779 C 43.116 47.838,43.080 47.987,42.978 48.110 C 42.781 48.347,42.793 48.352,43.542 48.388 C 43.899 48.405,43.921 48.487,44.000 50.078 L 44.083 51.750 44.731 51.803 L 45.378 51.856 45.287 53.440 C 45.211 54.763,45.234 55.010,45.431 54.934 C 45.561 54.884,45.667 54.908,45.667 54.986 C 45.667 55.064,45.817 55.167,46.001 55.215 C 46.233 55.276,46.322 55.421,46.292 55.693 C 46.266 55.940,46.342 56.092,46.500 56.106 C 46.637 56.118,46.881 56.137,47.042 56.147 C 47.281 56.163,47.333 56.328,47.333 57.071 C 47.333 57.792,47.392 57.991,47.625 58.052 C 47.895 58.122,47.894 58.129,47.615 58.147 C 47.063 58.183,47.510 58.500,48.112 58.500 L 48.704 58.500 48.638 60.667 L 48.573 62.833 49.120 62.833 C 49.666 62.833,49.667 62.834,49.686 63.708 C 49.716 65.067,49.721 65.080,50.202 65.136 L 50.655 65.188 50.702 66.802 C 50.740 68.093,50.800 68.421,51.000 68.439 C 51.137 68.451,51.428 68.470,51.644 68.481 C 52.035 68.500,52.038 68.514,51.978 70.125 L 51.917 71.750 52.458 71.802 L 53.000 71.854 53.000 73.518 C 53.000 74.752,53.054 75.174,53.208 75.154 C 53.780 75.080,53.980 75.198,54.084 75.671 C 54.145 75.948,54.282 76.164,54.389 76.151 C 55.375 76.030,55.378 76.035,55.312 77.860 L 55.250 79.553 55.747 79.621 C 56.378 79.707,56.327 79.606,56.354 80.811 C 56.373 81.657,56.427 81.842,56.647 81.821 C 57.560 81.733,57.537 81.676,57.477 83.875 C 57.422 85.886,57.545 86.627,57.852 86.143 C 57.972 85.952,57.995 85.952,57.997 86.143 C 57.999 86.275,58.104 86.329,58.250 86.273 C 58.443 86.199,58.505 86.319,58.521 86.797 C 58.578 88.513,58.542 88.413,59.125 88.469 L 59.667 88.521 59.686 89.886 C 59.696 90.636,59.692 91.381,59.675 91.542 C 59.653 91.762,59.770 91.833,60.156 91.833 L 60.667 91.833 60.688 93.000 C 60.723 95.013,60.776 95.167,61.427 95.167 C 61.816 95.167,61.833 95.213,61.833 96.250 L 61.833 97.333 62.417 97.333 C 62.989 97.333,63.000 97.346,63.016 98.042 C 63.050 99.510,63.069 99.583,63.417 99.590 C 63.913 99.599,64.165 99.809,64.048 100.116 C 63.970 100.319,64.003 100.352,64.180 100.245 C 64.379 100.125,64.382 100.146,64.197 100.374 C 64.002 100.614,64.049 100.651,64.608 100.698 C 65.186 100.746,65.240 100.793,65.245 101.250 L 65.250 101.750 72.458 101.796 L 79.667 101.842 79.667 100.765 L 79.667 99.688 80.208 99.636 C 80.790 99.579,80.782 99.599,80.816 98.136 C 80.832 97.414,80.867 97.352,81.292 97.303 C 81.784 97.246,81.781 97.252,81.813 96.000 L 81.833 95.167 82.417 95.167 C 82.737 95.167,83.000 95.087,83.000 94.990 C 83.000 94.893,82.906 94.867,82.792 94.931 C 82.625 95.025,82.625 95.004,82.792 94.824 C 82.923 94.683,83.000 94.095,83.000 93.227 L 83.000 91.854 83.542 91.802 C 84.031 91.755,84.088 91.692,84.133 91.155 C 84.180 90.599,84.216 90.565,84.675 90.632 L 85.167 90.704 85.167 89.019 C 85.167 87.213,85.176 87.198,86.125 87.321 C 86.282 87.341,86.333 86.816,86.333 85.174 C 86.333 83.850,86.398 82.992,86.500 82.979 C 86.592 82.968,86.742 82.940,86.833 82.917 C 86.925 82.894,87.112 82.866,87.250 82.854 C 87.444 82.838,87.500 82.593,87.500 81.750 L 87.500 80.667 88.007 80.667 C 88.316 80.667,88.504 80.585,88.488 80.458 C 88.407 79.839,88.513 79.469,88.745 79.558 C 88.879 79.610,89.032 79.584,89.083 79.500 C 89.237 79.251,89.667 79.510,89.667 79.851 C 89.667 80.025,89.739 80.167,89.828 80.167 C 89.917 80.167,89.950 80.270,89.902 80.396 C 89.841 80.554,89.948 80.625,90.247 80.625 C 90.828 80.625,90.798 80.542,90.861 82.333 L 90.917 83.917 91.458 83.969 L 92.000 84.021 92.000 85.413 C 92.000 86.371,92.065 86.832,92.208 86.890 C 92.375 86.957,92.375 86.976,92.208 86.987 C 92.094 86.994,92.000 87.080,92.000 87.177 C 92.000 87.275,92.131 87.341,92.292 87.325 C 92.935 87.259,92.974 87.331,93.060 88.708 C 93.107 89.465,93.155 90.213,93.167 90.370 C 93.183 90.587,93.309 90.644,93.677 90.601 L 94.167 90.544 94.167 91.772 L 94.167 93.000 94.750 93.000 C 95.293 93.000,95.335 93.038,95.355 93.542 C 95.418 95.124,95.404 95.081,95.880 95.136 C 96.270 95.181,96.336 95.269,96.354 95.761 C 96.381 96.485,96.391 96.534,96.570 96.817 C 96.672 96.978,96.658 97.014,96.526 96.933 C 96.420 96.867,96.333 96.885,96.333 96.972 C 96.333 97.162,96.736 97.333,97.180 97.333 C 97.474 97.333,97.500 97.468,97.500 99.000 C 97.500 99.917,97.556 100.658,97.625 100.647 C 98.350 100.532,98.648 100.688,98.698 101.208 L 98.750 101.750 105.311 101.796 C 111.142 101.838,111.862 101.815,111.775 101.588 C 111.721 101.448,111.750 101.333,111.839 101.333 C 111.927 101.333,112.000 101.183,112.000 101.000 C 112.000 100.730,112.111 100.667,112.583 100.667 C 113.155 100.667,113.370 100.443,112.958 100.277 C 112.792 100.210,112.792 100.190,112.958 100.180 C 113.095 100.171,113.167 99.882,113.167 99.333 C 113.167 98.514,113.175 98.500,113.679 98.500 C 114.153 98.500,114.190 98.458,114.163 97.958 C 114.146 97.660,114.140 96.910,114.150 96.292 L 114.167 95.167 115.239 95.167 C 116.300 95.167,116.592 94.985,116.486 94.392 C 116.472 94.314,116.469 93.444,116.480 92.458 L 116.500 90.667 117.000 90.667 L 117.500 90.667 117.500 89.000 L 117.500 87.333 118.096 87.333 C 118.642 87.333,118.689 87.295,118.662 86.875 C 118.565 85.415,118.639 85.167,119.167 85.167 C 119.442 85.167,119.676 85.092,119.688 85.000 C 119.699 84.908,119.727 84.758,119.750 84.667 C 119.773 84.575,119.801 83.900,119.813 83.167 L 119.833 81.833 120.341 81.833 C 120.650 81.833,120.837 81.752,120.821 81.625 C 120.806 81.510,120.803 80.769,120.814 79.977 L 120.833 78.537 121.417 78.428 L 122.000 78.318 122.000 77.242 L 122.000 76.167 122.576 76.167 L 123.153 76.167 123.051 74.500 L 122.950 72.833 123.548 72.833 C 124.100 72.833,124.149 72.792,124.198 72.292 C 124.243 71.827,124.307 71.758,124.648 71.806 C 125.223 71.887,125.328 71.596,125.331 69.907 L 125.333 68.398 125.875 68.407 L 126.417 68.417 126.464 66.792 L 126.512 65.167 127.006 65.167 L 127.500 65.167 127.500 64.000 L 127.500 62.833 128.083 62.833 L 128.667 62.833 128.667 61.167 L 128.667 59.500 129.257 59.500 C 129.633 59.500,129.838 59.424,129.821 59.292 C 129.659 58.046,129.859 56.167,130.153 56.167 C 130.871 56.167,130.955 56.030,130.876 54.991 C 130.796 53.947,130.869 53.868,131.792 53.988 C 131.924 54.005,132.000 53.800,132.000 53.424 C 132.000 52.825,132.075 52.769,132.792 52.827 C 133.063 52.849,133.160 52.773,133.140 52.554 C 133.126 52.387,133.126 51.636,133.140 50.886 L 133.167 49.521 133.708 49.469 L 134.250 49.417 134.305 47.834 C 134.368 46.028,134.317 46.192,134.843 46.113 C 135.215 46.057,135.257 45.960,135.333 44.984 C 135.413 43.958,135.434 43.916,135.867 43.911 C 136.426 43.904,136.653 43.699,136.329 43.493 C 136.162 43.388,136.151 43.338,136.292 43.336 C 136.430 43.334,136.500 43.054,136.500 42.500 C 136.500 41.641,136.610 41.544,137.458 41.654 C 137.613 41.674,137.667 41.250,137.667 40.007 L 137.667 38.333 138.179 38.333 C 138.635 38.333,138.688 38.282,138.662 37.875 C 138.560 36.333,138.621 36.167,139.292 36.164 C 139.757 36.162,139.853 36.120,139.667 36.000 C 139.500 35.892,139.486 35.838,139.625 35.836 C 139.740 35.834,139.833 35.646,139.833 35.417 C 139.833 35.052,139.906 35.000,140.417 35.000 C 140.988 35.000,141.204 34.777,140.792 34.610 C 140.625 34.543,140.625 34.524,140.792 34.513 C 140.941 34.504,141.000 34.102,141.000 33.101 C 141.000 31.662,141.142 31.373,141.738 31.602 C 141.936 31.678,141.970 31.345,141.946 29.555 L 141.917 27.417 131.958 27.374 L 122.000 27.331 122.000 27.675 C 122.000 27.902,122.071 27.980,122.208 27.902 C 122.375 27.808,122.375 27.829,122.208 28.009 C 122.094 28.132,122.000 28.545,122.000 28.927 C 122.000 29.568,121.970 29.615,121.603 29.545 C 121.012 29.432,120.900 29.675,120.854 31.177 C 120.843 31.549,120.765 31.811,120.681 31.759 C 120.597 31.707,120.490 31.759,120.444 31.874 C 120.377 32.040,120.357 32.041,120.346 31.875 C 120.314 31.365,119.842 31.688,119.858 32.208 C 119.935 34.579,119.850 35.139,119.418 35.092 C 118.947 35.040,118.627 35.336,118.674 35.782 C 118.777 36.776,118.660 37.333,118.347 37.333 C 117.611 37.333,117.572 37.430,117.636 39.087 L 117.697 40.667 117.265 40.667 C 117.028 40.667,116.832 40.760,116.831 40.875 C 116.829 41.026,116.789 41.021,116.683 40.854 C 116.594 40.714,116.529 41.256,116.514 42.254 C 116.485 44.166,116.498 44.133,115.825 44.034 L 115.302 43.958 115.419 45.045 C 115.544 46.213,115.324 46.512,114.527 46.259 C 114.240 46.168,114.226 46.269,114.296 47.831 C 114.377 49.632,114.372 49.642,113.375 49.512 C 113.220 49.492,113.167 49.931,113.167 51.232 L 113.167 52.980 112.625 52.948 L 112.083 52.917 112.083 54.576 L 112.083 56.235 111.500 56.247 C 110.973 56.258,110.912 56.309,110.866 56.777 C 110.824 57.203,110.726 57.313,110.316 57.395 C 110.042 57.450,109.830 57.590,109.845 57.706 C 109.860 57.822,109.864 58.535,109.853 59.292 L 109.833 60.667 109.237 60.667 C 108.670 60.667,108.643 60.693,108.671 61.208 C 108.687 61.506,108.693 62.256,108.684 62.875 L 108.667 64.000 108.167 64.000 C 107.811 64.000,107.659 64.084,107.641 64.292 C 107.627 64.452,107.598 64.658,107.577 64.750 C 107.556 64.842,107.530 65.491,107.519 66.193 C 107.501 67.383,107.478 67.463,107.166 67.381 C 106.564 67.224,106.402 67.569,106.354 69.112 C 106.300 70.824,106.305 70.813,105.732 70.704 L 105.289 70.619 105.408 71.726 L 105.527 72.833 104.847 72.833 L 104.167 72.833 104.147 70.375 C 104.137 69.023,104.118 67.804,104.106 67.667 C 104.084 67.423,104.019 67.397,103.333 67.354 C 103.017 67.334,103.000 67.215,103.000 65.083 L 103.000 62.832 102.458 62.874 L 101.917 62.917 101.917 61.370 C 101.917 59.731,101.817 59.511,101.113 59.589 C 100.757 59.628,100.750 59.589,100.750 57.445 L 100.750 55.262 100.250 55.236 C 99.975 55.222,99.506 55.200,99.208 55.188 L 98.667 55.167 98.667 53.500 C 98.667 52.130,98.711 51.833,98.917 51.833 C 99.054 51.833,99.168 51.740,99.169 51.625 C 99.171 51.484,99.222 51.496,99.327 51.662 C 99.531 51.985,99.747 51.491,99.618 50.998 C 99.569 50.813,99.616 50.658,99.724 50.647 C 99.830 50.637,99.992 50.611,100.083 50.589 C 100.175 50.568,100.386 50.539,100.552 50.525 C 100.732 50.510,100.842 50.382,100.825 50.208 C 100.808 50.048,100.804 49.340,100.814 48.636 L 100.833 47.354 101.375 47.302 L 101.917 47.250 101.856 45.625 C 101.790 43.875,101.799 43.859,102.792 43.988 C 102.941 44.007,103.000 43.683,103.000 42.841 C 103.000 41.605,103.055 41.537,103.958 41.654 C 104.119 41.675,104.167 40.916,104.167 38.341 L 104.167 35.000 104.542 34.980 C 104.748 34.969,105.010 34.973,105.125 34.988 C 105.282 35.008,105.333 34.483,105.333 32.841 L 105.333 30.667 105.813 30.667 L 106.292 30.667 106.321 29.003 L 106.350 27.339 96.920 27.339 L 87.491 27.339 87.602 28.419 L 87.713 29.500 86.815 29.502 C 85.151 29.506,85.233 29.380,85.305 31.843 L 85.369 34.000 84.934 34.000 C 84.695 34.000,84.500 34.079,84.500 34.177 C 84.500 34.274,84.439 34.316,84.365 34.270 C 84.291 34.224,84.235 35.134,84.240 36.292 L 84.250 38.397 83.750 38.395 C 83.057 38.392,83.033 38.466,83.011 40.726 C 83.000 41.829,82.974 42.747,82.954 42.766 C 82.933 42.785,82.729 42.827,82.500 42.859 C 81.921 42.939,81.858 43.084,81.954 44.106 C 82.034 44.939,82.015 45.000,81.676 45.000 C 81.477 45.000,81.355 45.067,81.405 45.148 C 81.455 45.229,81.366 45.285,81.207 45.273 C 80.952 45.253,80.911 45.450,80.869 46.865 L 80.822 48.480 80.290 48.532 L 79.759 48.583 79.808 50.687 L 79.858 52.791 79.421 52.901 C 79.181 52.961,78.921 52.971,78.843 52.923 C 78.765 52.875,78.659 52.947,78.606 53.084 C 78.553 53.221,78.586 53.333,78.678 53.333 C 78.789 53.333,78.790 53.437,78.678 53.645 C 78.587 53.816,78.564 54.008,78.627 54.072 C 78.691 54.135,78.550 54.152,78.314 54.109 C 77.856 54.026,77.464 54.184,77.511 54.432 C 77.527 54.515,77.531 55.460,77.520 56.531 L 77.500 58.479 76.958 58.531 L 76.417 58.583 76.367 60.161 C 76.311 61.931,76.323 61.898,75.702 61.909 C 75.337 61.915,75.247 61.997,75.237 62.333 C 75.230 62.563,75.211 63.561,75.195 64.552 C 75.177 65.703,75.107 66.316,75.000 66.250 C 74.908 66.193,74.832 66.245,74.831 66.365 C 74.829 66.498,74.781 66.518,74.706 66.417 C 74.460 66.082,74.141 66.154,74.173 66.538 C 74.190 66.746,74.195 67.517,74.185 68.252 L 74.167 69.587 73.625 69.585 L 73.083 69.583 73.144 71.208 L 73.206 72.833 72.531 72.833 C 71.918 72.833,71.851 72.791,71.803 72.375 C 71.758 71.989,71.672 71.917,71.250 71.917 L 70.750 71.917 70.724 70.452 C 70.692 68.688,70.631 68.500,70.093 68.500 L 69.676 68.500 69.630 66.305 L 69.583 64.111 69.086 64.045 C 68.452 63.960,68.515 64.143,68.487 62.280 C 68.470 61.180,68.402 60.668,68.273 60.683 C 67.393 60.789,67.333 60.718,67.333 59.564 C 67.333 58.565,67.304 58.469,67.018 58.543 C 66.492 58.681,66.360 58.458,66.304 57.331 L 66.250 56.250 65.708 56.258 L 65.167 56.266 65.167 54.550 C 65.167 53.106,65.125 52.833,64.907 52.833 C 64.747 52.833,64.692 52.914,64.765 53.042 C 64.855 53.202,64.834 53.205,64.671 53.055 C 64.555 52.947,64.356 52.899,64.230 52.948 C 64.041 53.020,64.000 52.626,64.000 50.768 L 64.000 48.500 63.397 48.500 L 62.794 48.500 62.856 46.875 C 62.911 45.408,62.888 45.252,62.625 45.273 C 62.465 45.286,62.333 45.222,62.333 45.130 C 62.333 45.039,62.221 45.008,62.083 45.060 C 61.877 45.140,61.833 44.966,61.833 44.060 C 61.833 43.155,61.790 42.981,61.583 43.060 C 61.446 43.113,61.333 43.084,61.333 42.995 C 61.333 42.906,61.186 42.833,61.005 42.833 C 60.697 42.833,60.673 42.696,60.630 40.625 L 60.583 38.417 60.125 38.426 C 59.667 38.435,59.588 38.298,59.660 37.611 C 59.687 37.360,59.593 37.315,59.138 37.361 L 58.583 37.417 58.536 35.720 L 58.489 34.024 57.953 34.054 L 57.417 34.083 57.367 32.758 C 57.340 32.029,57.228 31.321,57.117 31.184 C 56.959 30.989,56.961 30.963,57.125 31.061 C 57.257 31.141,57.333 31.089,57.333 30.919 C 57.333 30.772,57.240 30.664,57.125 30.679 C 56.363 30.778,56.333 30.725,56.333 29.264 C 56.333 28.492,56.288 27.742,56.232 27.597 C 56.124 27.314,36.809 27.182,36.407 27.461 M171.083 36.500 C 171.405 37.512,171.276 37.549,167.639 37.469 L 164.315 37.396 164.392 37.968 L 164.469 38.539 162.995 38.469 C 161.988 38.421,161.554 38.454,161.626 38.574 C 161.683 38.671,161.613 38.654,161.468 38.537 C 161.179 38.303,161.000 38.548,161.000 39.180 C 161.000 39.468,159.847 39.660,158.958 39.520 C 158.890 39.509,158.833 39.762,158.833 40.083 C 158.833 40.639,158.806 40.667,158.250 40.667 C 157.713 40.667,157.667 40.706,157.667 41.167 C 157.667 41.640,157.629 41.668,156.958 41.691 C 156.569 41.705,156.100 41.724,155.917 41.733 C 155.667 41.746,155.570 41.886,155.531 42.292 C 155.484 42.778,155.345 42.914,154.958 42.853 C 154.890 42.842,154.833 42.906,154.833 42.995 C 154.833 43.084,154.721 43.113,154.583 43.060 C 154.388 42.985,154.333 43.102,154.333 43.591 L 154.333 44.217 152.733 44.112 C 151.338 44.020,151.146 44.039,151.232 44.262 C 151.287 44.408,151.259 44.474,151.165 44.415 C 151.073 44.359,151.000 44.495,151.000 44.722 C 151.000 44.946,150.906 45.126,150.792 45.122 C 149.901 45.089,149.804 45.153,149.882 45.729 C 149.957 46.287,149.953 46.290,149.372 46.212 C 148.842 46.141,148.794 46.167,148.877 46.483 C 148.928 46.676,148.912 46.833,148.842 46.833 C 148.773 46.833,148.752 47.208,148.796 47.667 L 148.876 48.500 148.230 48.513 C 147.874 48.520,147.677 48.564,147.792 48.610 C 147.906 48.657,148.000 48.768,148.000 48.857 C 148.000 48.946,147.919 48.970,147.820 48.908 C 147.705 48.838,147.660 48.940,147.695 49.190 C 147.745 49.547,147.695 49.579,147.151 49.538 L 146.552 49.492 146.615 50.663 C 146.682 51.906,146.664 51.931,145.792 51.842 C 145.473 51.810,145.436 51.976,145.494 53.208 L 145.531 54.000 144.913 54.000 L 144.295 54.000 144.411 55.083 C 144.520 56.107,144.507 56.167,144.180 56.167 C 143.989 56.167,143.833 56.257,143.833 56.367 C 143.833 56.522,143.789 56.522,143.633 56.367 C 143.328 56.061,143.248 56.121,143.226 56.675 C 143.200 57.297,143.129 57.375,142.590 57.375 C 142.104 57.375,142.125 57.280,142.162 59.270 L 142.190 60.790 141.595 60.724 L 141.000 60.659 141.000 68.413 L 141.000 76.167 141.600 76.167 L 142.200 76.167 142.139 78.409 L 142.077 80.651 143.247 80.617 L 144.417 80.583 144.417 82.250 L 144.417 83.917 144.978 83.970 L 145.540 84.024 145.461 84.845 C 145.418 85.297,145.444 85.667,145.519 85.667 C 145.595 85.667,145.608 85.792,145.549 85.946 C 145.468 86.157,145.510 86.199,145.721 86.117 C 145.874 86.059,146.000 86.086,146.000 86.179 C 146.000 86.272,146.131 86.326,146.292 86.299 C 146.535 86.258,146.587 86.388,146.603 87.083 C 146.637 88.527,146.626 88.500,147.167 88.500 C 147.630 88.500,147.667 88.544,147.667 89.104 C 147.667 89.650,147.694 89.686,147.949 89.479 C 148.140 89.323,148.191 89.317,148.105 89.458 C 148.022 89.597,148.091 89.667,148.310 89.667 C 148.541 89.667,148.673 89.816,148.750 90.167 C 148.840 90.578,148.943 90.667,149.328 90.667 C 149.731 90.667,149.811 90.748,149.906 91.250 C 150.001 91.760,150.077 91.833,150.508 91.833 C 150.959 91.833,151.000 91.882,151.000 92.417 C 151.000 92.972,151.028 93.000,151.583 93.000 C 152.122 93.000,152.167 93.039,152.167 93.507 C 152.167 93.816,152.248 94.004,152.375 93.988 C 153.031 93.902,153.167 94.006,153.167 94.594 C 153.167 95.060,153.230 95.181,153.458 95.158 C 154.220 95.080,154.333 95.157,154.333 95.750 C 154.333 96.293,154.370 96.333,154.857 96.333 C 155.160 96.333,155.473 96.456,155.601 96.625 C 155.865 96.972,155.901 97.228,155.667 97.083 C 155.575 97.027,155.500 97.060,155.500 97.157 C 155.500 97.264,155.948 97.333,156.636 97.333 L 157.773 97.333 157.727 97.909 L 157.682 98.485 158.799 98.534 C 159.414 98.561,159.892 98.650,159.861 98.731 C 159.830 98.813,159.905 98.943,160.027 99.020 C 160.186 99.121,160.192 99.162,160.047 99.164 C 159.935 99.166,159.884 99.272,159.934 99.401 C 160.001 99.577,160.400 99.640,161.529 99.652 C 163.264 99.670,163.304 99.684,163.242 100.246 L 163.196 100.667 166.015 100.667 C 169.102 100.667,168.916 100.604,168.878 101.625 C 168.872 101.778,169.316 101.833,170.562 101.833 L 172.253 101.833 172.252 102.375 L 172.250 102.917 173.250 102.917 L 174.250 102.917 174.302 102.375 L 174.354 101.833 175.416 101.833 C 176.478 101.833,176.911 101.531,176.591 101.013 C 176.428 100.749,176.701 100.693,178.360 100.648 C 179.916 100.607,179.958 100.596,179.958 100.213 C 179.958 99.691,179.938 99.702,181.084 99.629 C 182.039 99.568,182.084 99.545,182.100 99.113 C 182.121 98.546,182.214 98.455,182.789 98.434 C 183.195 98.419,183.250 98.352,183.248 97.875 L 183.247 97.333 184.165 97.314 C 184.670 97.303,185.181 97.307,185.301 97.323 C 185.421 97.339,185.506 97.254,185.490 97.134 C 185.407 96.518,185.517 96.353,186.042 96.302 C 186.518 96.256,186.590 96.185,186.636 95.708 C 186.682 95.230,186.746 95.167,187.185 95.167 C 187.485 95.167,187.671 95.084,187.654 94.958 C 187.504 93.803,188.693 93.447,188.906 94.583 C 189.001 95.094,189.077 95.167,189.508 95.167 L 190.000 95.167 190.000 96.215 L 190.000 97.262 190.533 97.303 C 191.204 97.354,191.149 97.257,191.185 98.463 C 191.216 99.482,191.503 99.891,191.980 99.596 C 192.063 99.545,192.259 99.699,192.416 99.939 C 192.573 100.178,192.618 100.323,192.517 100.261 C 192.412 100.196,192.333 100.262,192.333 100.414 C 192.333 100.561,192.427 100.669,192.542 100.654 C 193.195 100.569,193.333 100.673,193.333 101.250 L 193.333 101.833 200.000 101.833 L 206.667 101.833 206.667 100.699 L 206.667 99.565 207.208 99.574 C 207.700 99.582,207.755 99.533,207.802 99.042 C 207.848 98.566,207.914 98.500,208.343 98.500 L 208.831 98.500 208.831 69.000 C 208.831 52.775,208.776 39.509,208.707 39.520 C 207.989 39.633,207.732 39.483,207.741 38.959 C 207.749 38.456,207.712 38.418,207.208 38.425 C 206.714 38.432,206.667 38.388,206.667 37.925 L 206.667 37.417 200.625 37.417 L 194.583 37.417 194.500 38.500 C 194.439 39.293,194.356 39.571,194.191 39.536 C 194.067 39.510,193.846 39.585,193.700 39.702 C 193.481 39.880,193.460 39.877,193.577 39.683 C 193.673 39.524,193.656 39.487,193.526 39.567 C 193.402 39.644,193.333 40.262,193.333 41.308 L 193.333 42.929 192.740 42.909 C 192.178 42.890,192.147 42.917,192.173 43.403 C 192.188 43.686,192.193 44.198,192.184 44.542 L 192.167 45.167 191.083 45.167 C 190.072 45.167,190.000 45.142,189.997 44.792 C 189.993 44.074,189.796 43.969,188.692 44.094 L 187.667 44.210 187.667 43.538 C 187.667 42.875,187.660 42.867,187.098 42.919 C 186.546 42.971,186.531 42.956,186.574 42.411 C 186.602 42.059,186.535 41.818,186.393 41.764 C 186.268 41.716,186.167 41.750,186.167 41.840 C 186.167 41.931,186.019 41.911,185.833 41.795 C 185.631 41.668,185.500 41.406,185.500 41.127 C 185.500 40.821,185.413 40.667,185.240 40.667 C 185.077 40.667,185.027 40.744,185.105 40.875 C 185.201 41.034,185.168 41.033,184.966 40.869 C 184.821 40.751,184.638 40.666,184.559 40.681 C 184.481 40.695,184.125 40.697,183.769 40.686 L 183.121 40.667 183.227 39.763 C 183.354 38.678,183.237 38.234,182.897 38.516 C 182.770 38.621,182.667 38.641,182.667 38.561 C 182.667 38.480,182.067 38.441,181.333 38.475 C 179.910 38.539,179.900 38.533,179.990 37.633 C 180.015 37.378,179.855 37.359,178.354 37.448 L 176.690 37.547 176.636 36.898 L 176.583 36.250 174.179 36.204 C 172.368 36.169,171.742 36.210,171.640 36.370 C 171.535 36.537,171.505 36.538,171.503 36.375 C 171.501 36.260,171.382 36.167,171.239 36.167 C 171.053 36.167,171.008 36.263,171.083 36.500 M308.160 36.512 C 308.065 36.691,308.008 36.968,308.035 37.127 C 308.079 37.390,307.889 37.416,306.000 37.408 C 303.827 37.399,303.674 37.447,303.669 38.143 C 303.667 38.534,303.656 38.536,302.079 38.463 C 300.445 38.388,299.980 38.627,300.411 39.324 C 300.505 39.476,300.275 39.578,300.109 39.458 C 300.077 39.435,299.913 39.529,299.744 39.667 C 299.513 39.854,299.470 39.859,299.575 39.687 C 299.670 39.528,299.642 39.480,299.482 39.533 C 299.354 39.575,299.226 39.847,299.198 40.138 C 299.144 40.677,298.801 40.795,297.625 40.675 C 297.465 40.659,297.332 40.744,297.331 40.865 C 297.329 41.026,297.282 41.018,297.150 40.833 C 297.006 40.633,296.988 40.658,297.054 40.961 C 297.148 41.389,296.741 41.897,296.407 41.769 C 296.288 41.724,296.107 41.787,296.005 41.910 C 295.892 42.047,295.882 42.157,295.981 42.192 C 296.501 42.378,295.641 42.832,294.692 42.873 L 293.667 42.917 293.667 43.560 L 293.667 44.203 292.570 44.114 C 291.666 44.041,291.490 44.067,291.565 44.263 C 291.615 44.393,291.592 44.500,291.513 44.500 C 291.435 44.500,291.381 44.629,291.394 44.787 C 291.406 44.946,291.304 45.084,291.167 45.095 C 291.029 45.107,290.785 45.127,290.625 45.141 C 290.418 45.159,290.333 45.311,290.333 45.667 C 290.333 46.056,290.259 46.167,290.000 46.167 C 289.817 46.167,289.667 46.239,289.667 46.328 C 289.667 46.417,289.554 46.446,289.417 46.394 C 289.228 46.321,289.167 46.424,289.167 46.816 C 289.167 47.280,289.115 47.333,288.667 47.333 C 288.391 47.333,288.155 47.427,288.141 47.542 C 288.127 47.656,288.098 47.825,288.077 47.917 C 288.056 48.008,288.030 48.172,288.019 48.281 C 288.009 48.390,287.757 48.502,287.461 48.531 C 287.056 48.570,286.917 48.667,286.906 48.917 C 286.897 49.100,286.878 49.569,286.862 49.958 C 286.838 50.553,286.778 50.667,286.490 50.667 C 286.301 50.667,286.193 50.741,286.249 50.831 C 286.307 50.926,286.240 50.954,286.092 50.897 C 285.874 50.813,285.833 50.972,285.833 51.898 L 285.833 52.998 285.250 52.905 L 284.667 52.813 284.667 53.990 L 284.667 55.167 284.112 55.167 L 283.557 55.167 283.518 57.289 C 283.479 59.395,283.374 59.770,282.877 59.587 C 282.512 59.454,282.488 60.104,282.536 68.750 L 282.583 77.250 283.042 77.303 C 283.492 77.355,283.500 77.378,283.525 78.553 C 283.538 79.211,283.557 79.862,283.566 80.000 C 283.591 80.363,283.828 80.679,284.054 80.651 C 284.636 80.579,284.667 80.664,284.667 82.353 L 284.667 84.039 285.073 83.961 C 285.717 83.838,285.850 84.041,285.855 85.153 C 285.859 85.980,285.909 86.173,286.097 86.101 C 286.227 86.051,286.333 86.083,286.333 86.172 C 286.333 86.261,286.443 86.333,286.577 86.333 C 286.712 86.333,286.907 86.492,287.011 86.687 C 287.158 86.962,287.154 87.012,286.995 86.914 C 286.862 86.832,286.818 86.868,286.868 87.018 C 286.911 87.146,287.089 87.258,287.265 87.267 C 288.068 87.310,288.162 87.348,288.138 87.625 C 288.077 88.355,288.165 88.500,288.667 88.500 C 289.152 88.500,289.315 88.843,289.177 89.570 C 289.161 89.654,289.279 89.617,289.439 89.487 C 289.625 89.335,289.685 89.325,289.605 89.458 C 289.518 89.603,289.610 89.667,289.907 89.667 C 290.272 89.667,290.333 89.741,290.333 90.177 C 290.333 90.564,290.404 90.680,290.625 90.658 C 290.785 90.642,291.013 90.637,291.130 90.647 C 291.432 90.675,291.667 91.369,291.460 91.625 C 291.332 91.784,291.435 91.833,291.896 91.833 C 292.475 91.833,292.500 91.857,292.500 92.417 C 292.500 92.972,292.528 93.000,293.083 93.000 C 293.639 93.000,293.667 93.028,293.667 93.583 L 293.667 94.167 294.468 94.167 C 295.620 94.167,295.883 94.417,295.858 95.492 L 295.838 96.372 296.919 96.256 C 298.052 96.135,298.005 96.109,298.067 96.875 C 298.095 97.228,298.380 97.328,299.364 97.331 C 300.311 97.333,300.312 97.334,300.364 97.875 C 300.417 98.417,300.417 98.417,301.458 98.466 C 302.523 98.517,302.566 98.551,302.507 99.292 C 302.478 99.648,302.535 99.667,303.650 99.667 C 304.624 99.667,304.807 99.709,304.727 99.917 C 304.671 100.063,304.725 100.168,304.857 100.169 C 305.034 100.171,305.030 100.205,304.838 100.327 C 304.413 100.595,304.915 100.661,307.750 100.707 L 310.417 100.750 310.392 101.292 L 310.368 101.833 311.434 101.833 C 312.073 101.833,312.500 101.763,312.500 101.657 C 312.500 101.560,312.406 101.537,312.292 101.605 C 312.130 101.703,312.127 101.677,312.277 101.490 C 312.469 101.253,312.500 101.162,312.500 100.833 C 312.500 100.481,315.730 100.630,315.956 100.992 C 316.085 101.197,316.099 101.355,315.997 101.419 C 315.491 101.732,315.956 101.855,317.455 101.804 L 319.076 101.750 319.113 101.272 C 319.162 100.637,318.984 100.683,321.465 100.657 L 323.667 100.633 323.667 100.150 L 323.667 99.667 325.375 99.648 C 328.256 99.617,328.076 99.656,328.136 99.042 C 328.182 98.563,328.246 98.500,328.685 98.500 C 328.985 98.500,329.171 98.418,329.154 98.292 C 329.037 97.389,329.105 97.333,330.333 97.333 L 331.500 97.333 331.500 96.728 L 331.500 96.123 332.238 96.207 C 332.656 96.254,333.054 96.212,333.155 96.112 C 333.282 95.985,333.333 95.994,333.333 96.143 C 333.333 96.259,333.410 96.305,333.504 96.247 C 333.599 96.189,333.665 96.053,333.651 95.946 C 333.570 95.284,333.671 95.167,334.325 95.167 L 334.984 95.167 335.034 94.125 L 335.083 93.083 336.000 93.000 C 336.888 92.919,336.918 92.900,336.968 92.385 C 337.013 91.922,337.088 91.846,337.551 91.801 L 338.083 91.750 338.112 89.546 C 338.138 87.578,338.111 87.344,337.862 87.364 C 337.143 87.421,337.000 87.333,337.000 86.833 C 337.000 86.391,336.943 86.333,336.511 86.333 C 336.080 86.333,336.015 86.268,335.969 85.792 C 335.923 85.315,335.851 85.244,335.375 85.198 C 334.877 85.150,334.833 85.098,334.833 84.562 C 334.833 83.990,334.823 83.981,334.250 84.072 C 333.675 84.163,333.667 84.156,333.667 83.572 C 333.667 83.008,333.643 82.984,333.167 83.059 C 332.653 83.140,332.651 83.137,332.604 82.292 C 332.588 81.996,332.469 81.906,332.042 81.864 C 331.548 81.817,331.500 81.762,331.500 81.253 L 331.500 80.693 329.284 80.703 L 327.067 80.713 327.083 81.327 C 327.098 81.880,327.061 81.934,326.719 81.868 C 326.085 81.747,325.750 81.947,326.023 82.284 C 326.216 82.522,326.215 82.543,326.015 82.423 C 325.834 82.313,325.802 82.363,325.875 82.641 C 325.971 83.010,325.815 83.082,325.091 83.003 C 324.799 82.971,324.790 82.998,325.008 83.266 C 325.184 83.482,325.189 83.527,325.028 83.430 C 324.864 83.332,324.821 83.399,324.861 83.690 C 324.916 84.077,324.893 84.084,323.417 84.102 C 321.492 84.127,321.480 84.128,321.512 84.375 C 321.616 85.172,321.632 85.167,319.250 85.167 L 317.000 85.167 317.000 85.750 L 317.000 86.333 313.677 86.333 L 310.354 86.333 310.302 85.792 C 310.243 85.175,310.391 85.208,307.542 85.182 C 305.974 85.168,305.833 85.140,305.833 84.847 C 305.833 84.403,305.662 84.000,305.472 84.000 C 305.385 84.000,305.367 84.094,305.431 84.208 C 305.522 84.369,305.500 84.372,305.337 84.221 C 305.221 84.114,305.023 84.066,304.896 84.114 C 304.681 84.197,304.576 83.807,304.654 83.208 C 304.671 83.081,304.483 83.000,304.174 83.000 C 303.676 83.000,303.666 82.985,303.647 82.125 C 303.617 80.738,303.624 80.754,303.042 80.698 C 302.489 80.645,302.351 80.167,302.491 78.792 C 302.515 78.562,302.404 78.506,301.969 78.528 C 301.665 78.544,301.173 78.544,300.875 78.528 L 300.333 78.500 300.333 76.250 L 300.333 74.000 321.208 73.981 C 345.599 73.958,342.584 74.044,342.582 73.375 C 342.580 72.874,342.621 72.833,343.123 72.833 L 343.667 72.833 343.667 67.845 L 343.667 62.857 343.292 62.803 C 342.701 62.719,342.710 59.779,343.301 59.695 C 343.990 59.598,343.749 58.599,343.020 58.530 L 342.457 58.476 342.562 57.585 C 342.693 56.469,342.573 56.068,342.199 56.371 C 341.981 56.547,341.960 56.543,342.077 56.349 C 342.187 56.168,342.137 56.136,341.859 56.208 C 341.517 56.298,341.500 56.248,341.500 55.133 L 341.500 53.964 340.917 54.032 L 340.333 54.100 340.313 53.217 C 340.282 51.906,340.286 51.916,339.791 51.926 C 339.348 51.935,339.333 51.906,339.314 51.009 C 339.284 49.565,339.293 49.588,338.708 49.531 C 338.186 49.481,337.945 48.567,338.155 47.435 C 338.170 47.354,337.916 47.330,337.591 47.383 L 337.000 47.479 337.000 46.828 C 337.000 46.319,336.946 46.198,336.751 46.273 C 336.614 46.325,336.551 46.447,336.610 46.543 C 336.674 46.646,336.638 46.669,336.523 46.598 C 336.416 46.531,336.371 46.407,336.424 46.322 C 336.477 46.236,336.403 46.167,336.260 46.167 C 336.112 46.167,336.000 46.024,336.000 45.837 C 336.000 45.467,335.275 44.913,335.007 45.079 C 334.849 45.177,334.753 44.740,334.819 44.217 C 334.838 44.067,334.423 44.042,333.172 44.116 L 331.500 44.215 331.500 43.557 C 331.500 42.909,331.492 42.900,330.875 42.903 C 330.276 42.905,330.252 42.883,330.302 42.391 C 330.338 42.031,330.270 41.845,330.075 41.770 C 329.862 41.688,329.822 41.730,329.905 41.947 C 330.008 42.214,329.996 42.214,329.702 41.949 C 329.531 41.794,329.124 41.667,328.799 41.667 C 328.273 41.667,328.197 41.611,328.106 41.155 C 328.018 40.713,327.940 40.650,327.543 40.696 C 327.131 40.744,327.075 40.690,327.000 40.167 L 326.917 39.583 325.794 39.583 C 324.800 39.583,324.682 39.550,324.763 39.292 C 324.920 38.797,324.681 38.281,324.403 38.512 C 324.272 38.620,324.167 38.635,324.167 38.545 C 324.167 38.450,323.819 38.416,323.333 38.462 L 322.500 38.542 322.500 37.974 L 322.500 37.406 319.750 37.473 L 317.000 37.539 317.000 36.946 C 317.000 36.620,316.912 36.299,316.805 36.232 C 316.670 36.149,316.645 36.210,316.722 36.431 C 316.828 36.732,316.821 36.733,316.604 36.454 C 316.233 35.978,308.417 36.032,308.160 36.512 M11.807 37.667 C 11.792 37.804,11.793 38.056,11.808 38.227 C 11.828 38.446,11.759 38.507,11.573 38.436 C 11.159 38.277,10.667 38.633,10.667 39.089 C 10.667 39.488,10.405 39.603,9.707 39.512 C 9.538 39.490,9.498 45.352,9.502 68.992 L 9.507 98.500 10.087 98.500 C 10.657 98.500,10.761 98.637,10.682 99.279 C 10.653 99.513,11.192 99.710,11.518 99.585 C 11.693 99.518,11.753 99.671,11.761 100.206 C 11.767 100.597,11.812 101.104,11.861 101.333 L 11.950 101.750 19.058 101.798 L 26.167 101.846 26.167 101.256 C 26.167 100.692,26.192 100.667,26.757 100.667 C 27.133 100.667,27.338 100.591,27.321 100.458 C 27.229 99.751,27.316 99.683,28.375 99.633 L 29.417 99.583 29.459 69.567 L 29.501 39.551 28.983 39.536 C 28.352 39.518,28.292 39.464,28.292 38.914 C 28.292 38.614,28.221 38.508,28.063 38.568 C 27.936 38.617,27.833 38.576,27.833 38.477 C 27.833 38.378,27.721 38.341,27.583 38.394 C 27.434 38.451,27.325 38.391,27.313 38.245 C 27.301 38.110,27.273 37.925,27.250 37.833 C 27.227 37.742,27.199 37.610,27.187 37.542 C 27.142 37.271,11.836 37.395,11.807 37.667 M317.031 51.208 C 317.082 51.740,317.099 51.751,318.000 51.799 C 319.102 51.859,319.389 51.943,319.251 52.165 C 319.194 52.258,319.245 52.339,319.365 52.346 C 319.533 52.357,319.535 52.379,319.375 52.444 C 319.062 52.570,319.125 52.859,319.458 52.825 C 320.173 52.752,320.313 52.836,320.364 53.375 L 320.417 53.917 321.526 53.966 L 322.635 54.015 322.561 54.487 C 322.481 54.993,322.658 55.138,323.292 55.086 C 323.638 55.058,323.667 55.125,323.667 55.945 C 323.667 56.543,323.735 56.834,323.875 56.836 C 324.016 56.838,324.004 56.889,323.838 56.994 C 323.556 57.172,323.740 57.276,324.500 57.367 C 324.859 57.410,324.909 57.489,324.864 57.942 C 324.814 58.447,324.835 58.466,325.406 58.439 L 326.000 58.411 326.000 59.539 L 326.000 60.667 313.667 60.667 L 301.333 60.667 301.312 60.125 C 301.248 58.466,301.253 58.457,302.375 58.346 C 302.444 58.339,302.500 58.108,302.500 57.833 C 302.500 57.476,302.583 57.328,302.792 57.314 C 302.952 57.304,303.196 57.285,303.333 57.272 C 303.521 57.256,303.596 56.989,303.633 56.208 C 303.670 55.432,303.744 55.167,303.925 55.167 C 304.058 55.167,304.173 55.073,304.180 54.958 C 304.190 54.792,304.210 54.792,304.277 54.958 C 304.492 55.491,304.667 55.061,304.667 54.000 L 304.667 52.833 305.250 52.833 C 305.787 52.833,305.833 52.794,305.833 52.333 L 305.833 51.833 306.917 51.833 L 308.000 51.833 308.000 51.250 L 308.000 50.667 312.489 50.667 L 316.979 50.667 317.031 51.208 M176.702 52.333 C 176.634 52.796,176.667 52.833,177.142 52.833 C 177.719 52.833,178.118 53.316,177.801 53.632 C 177.624 53.810,178.194 54.068,178.594 53.991 C 179.377 53.840,181.192 54.027,181.106 54.250 C 181.054 54.387,181.102 54.501,181.214 54.503 C 181.356 54.504,181.349 54.548,181.191 54.648 C 180.890 54.839,181.240 55.078,181.833 55.088 C 182.202 55.095,182.244 55.158,182.195 55.635 C 182.165 55.932,182.203 56.165,182.279 56.151 C 183.134 56.002,183.482 56.175,183.429 56.723 L 183.375 57.280 184.392 57.317 C 185.338 57.351,185.759 57.549,185.563 57.867 C 185.517 57.940,185.616 58.006,185.782 58.013 C 185.957 58.021,185.996 58.062,185.875 58.110 C 185.488 58.266,185.663 58.500,186.167 58.500 C 186.703 58.500,186.688 58.454,186.705 60.125 C 186.710 60.632,186.747 60.667,187.293 60.667 L 187.875 60.667 187.801 62.083 C 187.738 63.288,187.766 63.502,187.988 63.513 C 188.162 63.522,188.179 63.555,188.041 63.611 C 187.716 63.741,187.973 64.000,188.427 64.000 L 188.833 64.000 188.833 68.982 C 188.833 74.271,188.822 74.344,188.057 74.050 C 187.837 73.966,187.799 74.019,187.874 74.305 C 187.926 74.504,187.904 74.627,187.825 74.578 C 187.746 74.529,187.726 74.867,187.780 75.328 C 187.873 76.111,187.855 76.167,187.513 76.167 C 187.312 76.167,187.189 76.235,187.240 76.318 C 187.292 76.401,187.194 76.432,187.022 76.387 C 186.773 76.322,186.710 76.400,186.707 76.778 C 186.691 78.571,186.717 78.500,186.083 78.500 C 185.762 78.500,185.500 78.579,185.500 78.677 C 185.500 78.774,185.594 78.800,185.708 78.735 C 185.875 78.641,185.875 78.663,185.708 78.842 C 185.594 78.966,185.500 79.202,185.500 79.367 C 185.500 79.631,185.084 79.765,184.482 79.694 C 184.426 79.688,184.378 79.847,184.377 80.049 C 184.371 80.697,184.337 80.796,184.125 80.789 C 183.577 80.768,183.321 80.851,183.346 81.042 C 183.431 81.701,183.328 81.833,182.730 81.833 C 182.183 81.833,182.148 81.860,182.355 82.115 C 182.510 82.307,182.517 82.357,182.375 82.272 C 182.230 82.185,182.167 82.275,182.167 82.566 C 182.167 82.963,182.113 82.987,181.125 83.034 L 180.083 83.083 180.029 83.647 L 179.976 84.212 178.500 84.127 C 176.922 84.037,176.667 84.129,176.667 84.783 L 176.667 85.167 173.844 85.167 L 171.021 85.167 170.969 84.625 L 170.917 84.083 169.303 84.140 L 167.690 84.197 167.637 83.640 L 167.583 83.083 166.542 83.034 C 165.520 82.985,165.500 82.975,165.500 82.510 C 165.500 82.028,165.256 81.833,164.653 81.833 C 164.412 81.833,164.333 81.715,164.333 81.354 C 164.333 80.950,164.266 80.875,163.904 80.875 C 163.360 80.875,163.125 80.640,163.125 80.096 C 163.125 79.718,163.057 79.667,162.552 79.667 L 161.979 79.667 162.031 78.542 L 162.083 77.417 161.583 77.417 C 161.162 77.417,161.075 77.345,161.031 76.958 C 160.974 76.469,160.462 76.082,160.070 76.232 C 159.871 76.308,159.831 75.861,159.818 73.453 C 159.798 69.732,159.788 69.589,159.542 69.563 C 159.427 69.551,159.221 69.532,159.083 69.521 C 158.548 69.476,158.746 67.365,159.292 67.303 L 159.750 67.250 159.801 64.588 C 159.829 63.123,159.871 61.906,159.895 61.883 C 159.935 61.842,160.607 61.704,160.888 61.679 C 160.963 61.672,161.012 61.460,160.995 61.208 C 160.978 60.956,160.973 60.249,160.982 59.636 L 161.000 58.521 161.542 58.469 C 162.018 58.423,162.090 58.351,162.136 57.875 C 162.181 57.399,162.247 57.333,162.677 57.333 C 163.125 57.333,163.167 57.284,163.167 56.750 C 163.167 56.191,163.192 56.166,163.792 56.146 C 165.482 56.090,165.414 56.111,165.469 55.625 C 165.514 55.241,165.602 55.167,166.011 55.167 C 166.459 55.167,166.500 55.117,166.500 54.583 L 166.500 54.000 167.542 53.980 C 168.115 53.969,168.641 53.970,168.712 53.982 C 168.783 53.993,168.813 53.743,168.778 53.425 L 168.714 52.847 169.815 52.799 C 170.879 52.752,170.918 52.734,170.969 52.292 L 171.022 51.833 173.899 51.833 L 176.776 51.833 176.702 52.333 " stroke="none" fill="#94bcfc" fill-rule="evenodd"></path><path id="path1" d="M253.500 18.471 C 253.500 18.547,253.725 18.576,254.000 18.536 C 254.275 18.495,254.500 18.433,254.500 18.398 C 254.500 18.362,254.275 18.333,254.000 18.333 C 253.725 18.333,253.500 18.395,253.500 18.471 M374.125 19.618 C 374.331 19.657,374.669 19.657,374.875 19.618 C 375.081 19.578,374.912 19.545,374.500 19.545 C 374.087 19.545,373.919 19.578,374.125 19.618 M366.881 21.790 C 367.412 21.823,368.237 21.823,368.714 21.789 C 369.192 21.756,368.758 21.729,367.750 21.729 C 366.742 21.729,366.351 21.757,366.881 21.790 M87.545 28.833 C 87.545 29.246,87.578 29.415,87.618 29.208 C 87.657 29.002,87.657 28.665,87.618 28.458 C 87.578 28.252,87.545 28.421,87.545 28.833 M85.229 32.250 C 85.229 33.258,85.257 33.649,85.290 33.119 C 85.323 32.588,85.323 31.763,85.289 31.286 C 85.256 30.808,85.229 31.242,85.229 32.250 M84.166 36.701 C 84.120 37.682,84.142 38.425,84.215 38.353 C 84.287 38.280,84.324 37.477,84.297 36.569 L 84.248 34.917 84.166 36.701 M306.333 37.333 L 304.583 37.435 306.282 37.467 C 307.271 37.486,308.023 37.430,308.083 37.333 C 308.140 37.242,308.163 37.181,308.135 37.199 C 308.107 37.217,307.296 37.278,306.333 37.333 M16.219 37.458 C 18.128 37.485,21.203 37.485,23.053 37.458 C 24.903 37.431,23.342 37.409,19.583 37.409 C 15.825 37.409,14.311 37.431,16.219 37.458 M166.883 37.458 C 167.690 37.488,168.965 37.488,169.717 37.457 C 170.468 37.426,169.808 37.401,168.250 37.402 C 166.692 37.402,166.077 37.427,166.883 37.458 M177.121 37.454 C 177.417 37.490,177.942 37.491,178.288 37.455 C 178.634 37.419,178.392 37.389,177.750 37.388 C 177.108 37.387,176.825 37.417,177.121 37.454 M197.885 37.458 C 199.335 37.486,201.660 37.486,203.052 37.458 C 204.444 37.430,203.258 37.407,200.417 37.407 C 197.575 37.408,196.436 37.430,197.885 37.458 M318.125 37.457 C 318.790 37.489,319.877 37.489,320.542 37.457 C 321.206 37.425,320.662 37.400,319.333 37.400 C 318.004 37.400,317.460 37.425,318.125 37.457 M117.556 39.500 C 117.556 40.188,117.585 40.469,117.621 40.125 C 117.657 39.781,117.657 39.219,117.621 38.875 C 117.585 38.531,117.556 38.813,117.556 39.500 M162.629 38.456 C 163.021 38.491,163.621 38.490,163.963 38.454 C 164.304 38.419,163.983 38.390,163.250 38.390 C 162.517 38.391,162.237 38.420,162.629 38.456 M180.542 38.455 C 180.885 38.491,181.448 38.491,181.792 38.455 C 182.135 38.419,181.854 38.389,181.167 38.389 C 180.479 38.389,180.198 38.419,180.542 38.455 M301.875 38.455 C 302.219 38.491,302.781 38.491,303.125 38.455 C 303.469 38.419,303.188 38.389,302.500 38.389 C 301.813 38.389,301.531 38.419,301.875 38.455 M322.792 38.451 C 322.998 38.491,323.335 38.491,323.542 38.451 C 323.748 38.411,323.579 38.379,323.167 38.379 C 322.754 38.379,322.585 38.411,322.792 38.451 M40.723 40.667 C 40.723 41.354,40.752 41.635,40.788 41.292 C 40.824 40.948,40.824 40.385,40.788 40.042 C 40.752 39.698,40.723 39.979,40.723 40.667 M183.209 40.083 C 183.211 40.450,183.245 40.580,183.285 40.373 C 183.324 40.166,183.323 39.866,183.281 39.706 C 183.239 39.547,183.207 39.717,183.209 40.083 M81.875 44.417 C 81.877 44.783,81.911 44.914,81.951 44.706 C 81.991 44.499,81.990 44.199,81.948 44.040 C 81.906 43.880,81.874 44.050,81.875 44.417 M101.888 45.083 C 101.889 45.725,101.919 45.967,101.955 45.621 C 101.991 45.275,101.990 44.750,101.954 44.455 C 101.917 44.159,101.887 44.442,101.888 45.083 M152.621 44.120 C 152.917 44.157,153.442 44.158,153.788 44.122 C 154.134 44.086,153.892 44.055,153.250 44.055 C 152.608 44.054,152.325 44.083,152.621 44.120 M187.960 44.118 C 188.168 44.158,188.468 44.156,188.627 44.115 C 188.786 44.073,188.617 44.040,188.250 44.042 C 187.883 44.044,187.753 44.078,187.960 44.118 M292.625 44.118 C 292.831 44.157,293.169 44.157,293.375 44.118 C 293.581 44.078,293.412 44.045,293.000 44.045 C 292.587 44.045,292.419 44.078,292.625 44.118 M331.955 44.120 C 332.250 44.157,332.775 44.158,333.121 44.122 C 333.467 44.086,333.225 44.055,332.583 44.055 C 331.942 44.054,331.659 44.083,331.955 44.120 M42.890 46.250 C 42.891 46.983,42.920 47.263,42.956 46.871 C 42.991 46.479,42.990 45.879,42.954 45.537 C 42.919 45.196,42.890 45.517,42.890 46.250 M115.375 45.583 C 115.377 45.950,115.411 46.080,115.451 45.873 C 115.491 45.666,115.490 45.366,115.448 45.206 C 115.406 45.047,115.374 45.217,115.375 45.583 M190.455 45.120 C 190.750 45.157,191.275 45.158,191.621 45.122 C 191.967 45.086,191.725 45.055,191.083 45.055 C 190.442 45.054,190.159 45.083,190.455 45.120 M62.889 47.333 C 62.889 48.021,62.919 48.302,62.955 47.958 C 62.991 47.615,62.991 47.052,62.955 46.708 C 62.919 46.365,62.889 46.646,62.889 47.333 M148.712 47.833 C 148.712 48.246,148.745 48.415,148.784 48.208 C 148.824 48.002,148.824 47.665,148.784 47.458 C 148.745 47.252,148.712 47.421,148.712 47.833 M114.221 48.417 C 114.222 49.058,114.252 49.300,114.288 48.955 C 114.324 48.609,114.324 48.084,114.287 47.788 C 114.250 47.492,114.221 47.775,114.221 48.417 M79.728 51.167 C 79.728 52.129,79.756 52.523,79.790 52.042 C 79.823 51.560,79.823 50.773,79.790 50.292 C 79.756 49.810,79.728 50.204,79.728 51.167 M146.542 51.250 C 146.544 51.617,146.578 51.747,146.618 51.540 C 146.658 51.332,146.656 51.032,146.615 50.873 C 146.573 50.714,146.540 50.883,146.542 51.250 M45.221 52.917 C 45.222 53.558,45.252 53.800,45.288 53.455 C 45.324 53.109,45.324 52.584,45.287 52.288 C 45.250 51.992,45.221 52.275,45.221 52.917 M145.379 53.333 C 145.379 53.746,145.411 53.915,145.451 53.708 C 145.491 53.502,145.491 53.165,145.451 52.958 C 145.411 52.752,145.379 52.921,145.379 53.333 M111.998 55.117 C 111.953 55.778,111.977 56.258,112.050 56.184 C 112.124 56.110,112.160 55.570,112.132 54.983 L 112.080 53.917 111.998 55.117 M130.879 54.667 C 130.879 55.079,130.911 55.248,130.951 55.042 C 130.991 54.835,130.991 54.498,130.951 54.292 C 130.911 54.085,130.879 54.254,130.879 54.667 M144.372 55.667 C 144.372 55.987,144.406 56.119,144.448 55.958 C 144.490 55.798,144.490 55.535,144.448 55.375 C 144.406 55.215,144.372 55.346,144.372 55.667 M342.542 57.917 C 342.544 58.283,342.578 58.414,342.618 58.206 C 342.658 57.999,342.656 57.699,342.615 57.540 C 342.573 57.380,342.540 57.550,342.542 57.917 M142.057 59.583 C 142.058 60.317,142.087 60.596,142.122 60.204 C 142.157 59.812,142.157 59.212,142.121 58.871 C 142.085 58.529,142.057 58.850,142.057 59.583 M325.889 59.500 C 325.889 60.188,325.919 60.469,325.955 60.125 C 325.991 59.781,325.991 59.219,325.955 58.875 C 325.919 58.531,325.889 58.813,325.889 59.500 M48.562 60.250 C 48.563 61.258,48.590 61.649,48.623 61.119 C 48.657 60.588,48.656 59.763,48.623 59.286 C 48.589 58.808,48.562 59.242,48.562 60.250 M101.035 59.568 C 101.061 59.582,101.229 59.704,101.407 59.839 C 101.676 60.042,101.706 60.043,101.588 59.847 C 101.480 59.668,101.515 59.637,101.731 59.720 C 101.889 59.780,101.977 59.765,101.928 59.686 C 101.879 59.606,101.647 59.542,101.413 59.542 C 101.178 59.542,101.008 59.554,101.035 59.568 M343.333 59.649 C 342.929 59.762,342.917 59.808,342.917 61.258 L 342.917 62.750 343.875 62.800 L 344.833 62.850 344.833 61.175 L 344.833 59.500 344.292 59.517 C 343.994 59.526,343.563 59.585,343.333 59.649 M101.905 61.832 C 101.914 62.669,101.973 62.917,102.167 62.931 C 102.304 62.941,102.326 62.918,102.216 62.880 C 102.097 62.840,101.990 62.388,101.954 61.781 L 101.894 60.750 101.905 61.832 M187.723 61.833 C 187.723 62.521,187.752 62.802,187.788 62.458 C 187.824 62.115,187.824 61.552,187.788 61.208 C 187.752 60.865,187.723 61.146,187.723 61.833 M51.889 69.667 C 51.889 70.354,51.919 70.635,51.955 70.292 C 51.991 69.948,51.991 69.385,51.955 69.042 C 51.919 68.698,51.889 68.979,51.889 69.667 M70.410 68.678 C 70.327 68.811,70.350 68.843,70.474 68.766 C 70.597 68.690,70.674 68.786,70.686 69.032 C 70.702 69.341,70.721 69.356,70.785 69.107 C 70.885 68.720,70.591 68.384,70.410 68.678 M70.692 70.615 C 70.678 71.274,70.723 71.849,70.792 71.891 C 70.860 71.934,70.895 71.582,70.869 71.109 C 70.784 69.577,70.717 69.390,70.692 70.615 M73.056 71.667 C 73.056 72.354,73.085 72.635,73.121 72.292 C 73.157 71.948,73.157 71.385,73.121 71.042 C 73.085 70.698,73.056 70.979,73.056 71.667 M105.372 72.333 C 105.372 72.654,105.406 72.785,105.448 72.625 C 105.490 72.465,105.490 72.202,105.448 72.042 C 105.406 71.881,105.372 72.012,105.372 72.333 M123.056 74.000 C 123.056 74.688,123.085 74.969,123.121 74.625 C 123.157 74.281,123.157 73.719,123.121 73.375 C 123.085 73.031,123.056 73.313,123.056 74.000 M187.709 75.583 C 187.711 75.950,187.745 76.080,187.785 75.873 C 187.824 75.666,187.823 75.366,187.781 75.206 C 187.739 75.047,187.707 75.217,187.709 75.583 M55.223 77.333 C 55.223 78.021,55.252 78.302,55.288 77.958 C 55.324 77.615,55.324 77.052,55.288 76.708 C 55.252 76.365,55.223 76.646,55.223 77.333 M142.062 77.917 C 142.063 78.925,142.090 79.316,142.123 78.786 C 142.157 78.255,142.156 77.430,142.123 76.952 C 142.089 76.474,142.062 76.908,142.062 77.917 M162.042 79.083 C 162.044 79.450,162.078 79.580,162.118 79.373 C 162.158 79.166,162.156 78.866,162.115 78.706 C 162.073 78.547,162.040 78.717,162.042 79.083 M143.701 80.615 L 144.319 80.686 144.379 81.801 L 144.439 82.917 144.428 81.750 L 144.417 80.583 143.750 80.563 L 143.083 80.544 143.701 80.615 M163.333 80.731 C 163.333 80.882,163.983 80.947,164.190 80.815 C 164.344 80.718,164.243 80.671,163.875 80.669 C 163.577 80.668,163.333 80.695,163.333 80.731 M57.395 83.500 C 57.395 84.462,57.423 84.856,57.456 84.375 C 57.490 83.894,57.490 83.106,57.456 82.625 C 57.423 82.144,57.395 82.537,57.395 83.500 M323.667 84.000 L 322.417 84.107 323.615 84.137 C 324.274 84.153,324.860 84.092,324.917 84.000 C 324.973 83.908,324.996 83.847,324.968 83.863 C 324.940 83.880,324.354 83.941,323.667 84.000 M145.379 84.667 C 145.379 85.079,145.411 85.248,145.451 85.042 C 145.491 84.835,145.491 84.498,145.451 84.292 C 145.411 84.085,145.379 84.254,145.379 84.667 M168.296 84.122 C 168.688 84.157,169.288 84.157,169.629 84.121 C 169.971 84.085,169.650 84.057,168.917 84.057 C 168.183 84.058,167.904 84.087,168.296 84.122 M178.208 84.121 C 178.552 84.157,179.115 84.157,179.458 84.121 C 179.802 84.085,179.521 84.056,178.833 84.056 C 178.146 84.056,177.865 84.085,178.208 84.121 M146.487 86.792 C 146.566 87.367,146.578 87.379,146.633 86.938 C 146.666 86.675,146.627 86.394,146.547 86.313 C 146.463 86.229,146.437 86.434,146.487 86.792 M93.003 90.292 C 93.004 90.625,93.046 90.686,93.154 90.515 C 93.236 90.386,93.264 90.180,93.217 90.057 C 93.082 89.704,93.000 89.794,93.003 90.292 M291.333 91.260 C 291.333 91.494,291.401 91.644,291.484 91.593 C 291.567 91.542,291.596 91.350,291.548 91.167 C 291.428 90.708,291.333 90.749,291.333 91.260 M336.000 92.985 L 335.083 93.083 335.034 94.125 L 334.984 95.167 335.992 95.167 L 337.000 95.167 337.000 94.000 C 337.000 93.358,336.981 92.846,336.958 92.860 C 336.935 92.875,336.504 92.932,336.000 92.985 M293.667 95.250 L 293.667 96.333 294.750 96.333 L 295.833 96.333 295.853 95.792 C 295.901 94.428,295.679 94.167,294.468 94.167 L 293.667 94.167 293.667 95.250 M297.208 96.282 C 297.369 96.323,297.631 96.323,297.792 96.282 C 297.952 96.240,297.821 96.205,297.500 96.205 C 297.179 96.205,297.048 96.240,297.208 96.282 M331.794 96.285 C 332.001 96.324,332.301 96.323,332.460 96.281 C 332.620 96.239,332.450 96.207,332.083 96.209 C 331.717 96.211,331.586 96.245,331.794 96.285 M192.148 100.125 C 192.193 100.469,192.258 100.618,192.294 100.456 C 192.329 100.295,192.436 100.210,192.530 100.268 C 192.624 100.327,192.572 100.178,192.415 99.937 C 192.051 99.382,192.052 99.381,192.148 100.125 M11.667 101.306 C 11.667 101.596,11.737 101.833,11.822 101.833 C 11.908 101.833,11.941 101.629,11.895 101.379 C 11.777 100.727,11.667 100.691,11.667 101.306 " stroke="none" fill="#98bcfc" fill-rule="evenodd"></path><path id="path2" d="M253.500 18.471 C 253.500 18.547,253.725 18.576,254.000 18.536 C 254.275 18.495,254.500 18.433,254.500 18.398 C 254.500 18.362,254.275 18.333,254.000 18.333 C 253.725 18.333,253.500 18.395,253.500 18.471 M374.125 19.618 C 374.331 19.657,374.669 19.657,374.875 19.618 C 375.081 19.578,374.912 19.545,374.500 19.545 C 374.087 19.545,373.919 19.578,374.125 19.618 M366.881 21.790 C 367.412 21.823,368.237 21.823,368.714 21.789 C 369.192 21.756,368.758 21.729,367.750 21.729 C 366.742 21.729,366.351 21.757,366.881 21.790 M87.545 28.833 C 87.545 29.246,87.578 29.415,87.618 29.208 C 87.657 29.002,87.657 28.665,87.618 28.458 C 87.578 28.252,87.545 28.421,87.545 28.833 M85.229 32.250 C 85.229 33.258,85.257 33.649,85.290 33.119 C 85.323 32.588,85.323 31.763,85.289 31.286 C 85.256 30.808,85.229 31.242,85.229 32.250 M84.166 36.701 C 84.120 37.682,84.142 38.425,84.215 38.353 C 84.287 38.280,84.324 37.477,84.297 36.569 L 84.248 34.917 84.166 36.701 M306.333 37.333 L 304.583 37.435 306.282 37.467 C 307.271 37.486,308.023 37.430,308.083 37.333 C 308.140 37.242,308.163 37.181,308.135 37.199 C 308.107 37.217,307.296 37.278,306.333 37.333 M16.219 37.458 C 18.128 37.485,21.203 37.485,23.053 37.458 C 24.903 37.431,23.342 37.409,19.583 37.409 C 15.825 37.409,14.311 37.431,16.219 37.458 M166.883 37.458 C 167.690 37.488,168.965 37.488,169.717 37.457 C 170.468 37.426,169.808 37.401,168.250 37.402 C 166.692 37.402,166.077 37.427,166.883 37.458 M177.121 37.454 C 177.417 37.490,177.942 37.491,178.288 37.455 C 178.634 37.419,178.392 37.389,177.750 37.388 C 177.108 37.387,176.825 37.417,177.121 37.454 M197.885 37.458 C 199.335 37.486,201.660 37.486,203.052 37.458 C 204.444 37.430,203.258 37.407,200.417 37.407 C 197.575 37.408,196.436 37.430,197.885 37.458 M318.125 37.457 C 318.790 37.489,319.877 37.489,320.542 37.457 C 321.206 37.425,320.662 37.400,319.333 37.400 C 318.004 37.400,317.460 37.425,318.125 37.457 M117.556 39.500 C 117.556 40.188,117.585 40.469,117.621 40.125 C 117.657 39.781,117.657 39.219,117.621 38.875 C 117.585 38.531,117.556 38.813,117.556 39.500 M162.629 38.456 C 163.021 38.491,163.621 38.490,163.963 38.454 C 164.304 38.419,163.983 38.390,163.250 38.390 C 162.517 38.391,162.237 38.420,162.629 38.456 M180.542 38.455 C 180.885 38.491,181.448 38.491,181.792 38.455 C 182.135 38.419,181.854 38.389,181.167 38.389 C 180.479 38.389,180.198 38.419,180.542 38.455 M301.875 38.455 C 302.219 38.491,302.781 38.491,303.125 38.455 C 303.469 38.419,303.188 38.389,302.500 38.389 C 301.813 38.389,301.531 38.419,301.875 38.455 M322.792 38.451 C 322.998 38.491,323.335 38.491,323.542 38.451 C 323.748 38.411,323.579 38.379,323.167 38.379 C 322.754 38.379,322.585 38.411,322.792 38.451 M40.723 40.667 C 40.723 41.354,40.752 41.635,40.788 41.292 C 40.824 40.948,40.824 40.385,40.788 40.042 C 40.752 39.698,40.723 39.979,40.723 40.667 M183.209 40.083 C 183.211 40.450,183.245 40.580,183.285 40.373 C 183.324 40.166,183.323 39.866,183.281 39.706 C 183.239 39.547,183.207 39.717,183.209 40.083 M81.875 44.417 C 81.877 44.783,81.911 44.914,81.951 44.706 C 81.991 44.499,81.990 44.199,81.948 44.040 C 81.906 43.880,81.874 44.050,81.875 44.417 M101.888 45.083 C 101.889 45.725,101.919 45.967,101.955 45.621 C 101.991 45.275,101.990 44.750,101.954 44.455 C 101.917 44.159,101.887 44.442,101.888 45.083 M152.621 44.120 C 152.917 44.157,153.442 44.158,153.788 44.122 C 154.134 44.086,153.892 44.055,153.250 44.055 C 152.608 44.054,152.325 44.083,152.621 44.120 M187.960 44.118 C 188.168 44.158,188.468 44.156,188.627 44.115 C 188.786 44.073,188.617 44.040,188.250 44.042 C 187.883 44.044,187.753 44.078,187.960 44.118 M292.625 44.118 C 292.831 44.157,293.169 44.157,293.375 44.118 C 293.581 44.078,293.412 44.045,293.000 44.045 C 292.587 44.045,292.419 44.078,292.625 44.118 M331.955 44.120 C 332.250 44.157,332.775 44.158,333.121 44.122 C 333.467 44.086,333.225 44.055,332.583 44.055 C 331.942 44.054,331.659 44.083,331.955 44.120 M42.890 46.250 C 42.891 46.983,42.920 47.263,42.956 46.871 C 42.991 46.479,42.990 45.879,42.954 45.537 C 42.919 45.196,42.890 45.517,42.890 46.250 M115.375 45.583 C 115.377 45.950,115.411 46.080,115.451 45.873 C 115.491 45.666,115.490 45.366,115.448 45.206 C 115.406 45.047,115.374 45.217,115.375 45.583 M190.455 45.120 C 190.750 45.157,191.275 45.158,191.621 45.122 C 191.967 45.086,191.725 45.055,191.083 45.055 C 190.442 45.054,190.159 45.083,190.455 45.120 M62.889 47.333 C 62.889 48.021,62.919 48.302,62.955 47.958 C 62.991 47.615,62.991 47.052,62.955 46.708 C 62.919 46.365,62.889 46.646,62.889 47.333 M148.712 47.833 C 148.712 48.246,148.745 48.415,148.784 48.208 C 148.824 48.002,148.824 47.665,148.784 47.458 C 148.745 47.252,148.712 47.421,148.712 47.833 M114.221 48.417 C 114.222 49.058,114.252 49.300,114.288 48.955 C 114.324 48.609,114.324 48.084,114.287 47.788 C 114.250 47.492,114.221 47.775,114.221 48.417 M79.728 51.167 C 79.728 52.129,79.756 52.523,79.790 52.042 C 79.823 51.560,79.823 50.773,79.790 50.292 C 79.756 49.810,79.728 50.204,79.728 51.167 M146.542 51.250 C 146.544 51.617,146.578 51.747,146.618 51.540 C 146.658 51.332,146.656 51.032,146.615 50.873 C 146.573 50.714,146.540 50.883,146.542 51.250 M45.221 52.917 C 45.222 53.558,45.252 53.800,45.288 53.455 C 45.324 53.109,45.324 52.584,45.287 52.288 C 45.250 51.992,45.221 52.275,45.221 52.917 M145.379 53.333 C 145.379 53.746,145.411 53.915,145.451 53.708 C 145.491 53.502,145.491 53.165,145.451 52.958 C 145.411 52.752,145.379 52.921,145.379 53.333 M111.998 55.117 C 111.953 55.778,111.977 56.258,112.050 56.184 C 112.124 56.110,112.160 55.570,112.132 54.983 L 112.080 53.917 111.998 55.117 M130.879 54.667 C 130.879 55.079,130.911 55.248,130.951 55.042 C 130.991 54.835,130.991 54.498,130.951 54.292 C 130.911 54.085,130.879 54.254,130.879 54.667 M144.372 55.667 C 144.372 55.987,144.406 56.119,144.448 55.958 C 144.490 55.798,144.490 55.535,144.448 55.375 C 144.406 55.215,144.372 55.346,144.372 55.667 M342.542 57.917 C 342.544 58.283,342.578 58.414,342.618 58.206 C 342.658 57.999,342.656 57.699,342.615 57.540 C 342.573 57.380,342.540 57.550,342.542 57.917 M142.057 59.583 C 142.058 60.317,142.087 60.596,142.122 60.204 C 142.157 59.812,142.157 59.212,142.121 58.871 C 142.085 58.529,142.057 58.850,142.057 59.583 M325.889 59.500 C 325.889 60.188,325.919 60.469,325.955 60.125 C 325.991 59.781,325.991 59.219,325.955 58.875 C 325.919 58.531,325.889 58.813,325.889 59.500 M48.562 60.250 C 48.563 61.258,48.590 61.649,48.623 61.119 C 48.657 60.588,48.656 59.763,48.623 59.286 C 48.589 58.808,48.562 59.242,48.562 60.250 M101.035 59.568 C 101.061 59.582,101.229 59.704,101.407 59.839 C 101.676 60.042,101.706 60.043,101.588 59.847 C 101.480 59.668,101.515 59.637,101.731 59.720 C 101.889 59.780,101.977 59.765,101.928 59.686 C 101.879 59.606,101.647 59.542,101.413 59.542 C 101.178 59.542,101.008 59.554,101.035 59.568 M343.333 59.649 C 342.929 59.762,342.917 59.808,342.917 61.258 L 342.917 62.750 343.875 62.800 L 344.833 62.850 344.833 61.175 L 344.833 59.500 344.292 59.517 C 343.994 59.526,343.563 59.585,343.333 59.649 M101.905 61.832 C 101.914 62.669,101.973 62.917,102.167 62.931 C 102.304 62.941,102.326 62.918,102.216 62.880 C 102.097 62.840,101.990 62.388,101.954 61.781 L 101.894 60.750 101.905 61.832 M187.723 61.833 C 187.723 62.521,187.752 62.802,187.788 62.458 C 187.824 62.115,187.824 61.552,187.788 61.208 C 187.752 60.865,187.723 61.146,187.723 61.833 M51.889 69.667 C 51.889 70.354,51.919 70.635,51.955 70.292 C 51.991 69.948,51.991 69.385,51.955 69.042 C 51.919 68.698,51.889 68.979,51.889 69.667 M70.410 68.678 C 70.327 68.811,70.350 68.843,70.474 68.766 C 70.597 68.690,70.674 68.786,70.686 69.032 C 70.702 69.341,70.721 69.356,70.785 69.107 C 70.885 68.720,70.591 68.384,70.410 68.678 M70.692 70.615 C 70.678 71.274,70.723 71.849,70.792 71.891 C 70.860 71.934,70.895 71.582,70.869 71.109 C 70.784 69.577,70.717 69.390,70.692 70.615 M73.056 71.667 C 73.056 72.354,73.085 72.635,73.121 72.292 C 73.157 71.948,73.157 71.385,73.121 71.042 C 73.085 70.698,73.056 70.979,73.056 71.667 M105.372 72.333 C 105.372 72.654,105.406 72.785,105.448 72.625 C 105.490 72.465,105.490 72.202,105.448 72.042 C 105.406 71.881,105.372 72.012,105.372 72.333 M123.056 74.000 C 123.056 74.688,123.085 74.969,123.121 74.625 C 123.157 74.281,123.157 73.719,123.121 73.375 C 123.085 73.031,123.056 73.313,123.056 74.000 M187.709 75.583 C 187.711 75.950,187.745 76.080,187.785 75.873 C 187.824 75.666,187.823 75.366,187.781 75.206 C 187.739 75.047,187.707 75.217,187.709 75.583 M55.223 77.333 C 55.223 78.021,55.252 78.302,55.288 77.958 C 55.324 77.615,55.324 77.052,55.288 76.708 C 55.252 76.365,55.223 76.646,55.223 77.333 M142.062 77.917 C 142.063 78.925,142.090 79.316,142.123 78.786 C 142.157 78.255,142.156 77.430,142.123 76.952 C 142.089 76.474,142.062 76.908,142.062 77.917 M162.042 79.083 C 162.044 79.450,162.078 79.580,162.118 79.373 C 162.158 79.166,162.156 78.866,162.115 78.706 C 162.073 78.547,162.040 78.717,162.042 79.083 M143.701 80.615 L 144.319 80.686 144.379 81.801 L 144.439 82.917 144.428 81.750 L 144.417 80.583 143.750 80.563 L 143.083 80.544 143.701 80.615 M163.333 80.731 C 163.333 80.882,163.983 80.947,164.190 80.815 C 164.344 80.718,164.243 80.671,163.875 80.669 C 163.577 80.668,163.333 80.695,163.333 80.731 M57.395 83.500 C 57.395 84.462,57.423 84.856,57.456 84.375 C 57.490 83.894,57.490 83.106,57.456 82.625 C 57.423 82.144,57.395 82.537,57.395 83.500 M323.667 84.000 L 322.417 84.107 323.615 84.137 C 324.274 84.153,324.860 84.092,324.917 84.000 C 324.973 83.908,324.996 83.847,324.968 83.863 C 324.940 83.880,324.354 83.941,323.667 84.000 M145.379 84.667 C 145.379 85.079,145.411 85.248,145.451 85.042 C 145.491 84.835,145.491 84.498,145.451 84.292 C 145.411 84.085,145.379 84.254,145.379 84.667 M168.296 84.122 C 168.688 84.157,169.288 84.157,169.629 84.121 C 169.971 84.085,169.650 84.057,168.917 84.057 C 168.183 84.058,167.904 84.087,168.296 84.122 M178.208 84.121 C 178.552 84.157,179.115 84.157,179.458 84.121 C 179.802 84.085,179.521 84.056,178.833 84.056 C 178.146 84.056,177.865 84.085,178.208 84.121 M146.487 86.792 C 146.566 87.367,146.578 87.379,146.633 86.938 C 146.666 86.675,146.627 86.394,146.547 86.313 C 146.463 86.229,146.437 86.434,146.487 86.792 M93.003 90.292 C 93.004 90.625,93.046 90.686,93.154 90.515 C 93.236 90.386,93.264 90.180,93.217 90.057 C 93.082 89.704,93.000 89.794,93.003 90.292 M291.333 91.260 C 291.333 91.494,291.401 91.644,291.484 91.593 C 291.567 91.542,291.596 91.350,291.548 91.167 C 291.428 90.708,291.333 90.749,291.333 91.260 M336.000 92.985 L 335.083 93.083 335.034 94.125 L 334.984 95.167 335.992 95.167 L 337.000 95.167 337.000 94.000 C 337.000 93.358,336.981 92.846,336.958 92.860 C 336.935 92.875,336.504 92.932,336.000 92.985 M293.667 95.250 L 293.667 96.333 294.750 96.333 L 295.833 96.333 295.853 95.792 C 295.901 94.428,295.679 94.167,294.468 94.167 L 293.667 94.167 293.667 95.250 M297.208 96.282 C 297.369 96.323,297.631 96.323,297.792 96.282 C 297.952 96.240,297.821 96.205,297.500 96.205 C 297.179 96.205,297.048 96.240,297.208 96.282 M331.794 96.285 C 332.001 96.324,332.301 96.323,332.460 96.281 C 332.620 96.239,332.450 96.207,332.083 96.209 C 331.717 96.211,331.586 96.245,331.794 96.285 M192.148 100.125 C 192.193 100.469,192.258 100.618,192.294 100.456 C 192.329 100.295,192.436 100.210,192.530 100.268 C 192.624 100.327,192.572 100.178,192.415 99.937 C 192.051 99.382,192.052 99.381,192.148 100.125 M11.667 101.306 C 11.667 101.596,11.737 101.833,11.822 101.833 C 11.908 101.833,11.941 101.629,11.895 101.379 C 11.777 100.727,11.667 100.691,11.667 101.306 " stroke="none" fill="#98bcfc" fill-rule="evenodd"></path><path id="path3" d="M253.500 18.471 C 253.500 18.547,253.725 18.576,254.000 18.536 C 254.275 18.495,254.500 18.433,254.500 18.398 C 254.500 18.362,254.275 18.333,254.000 18.333 C 253.725 18.333,253.500 18.395,253.500 18.471 M374.125 19.618 C 374.331 19.657,374.669 19.657,374.875 19.618 C 375.081 19.578,374.912 19.545,374.500 19.545 C 374.087 19.545,373.919 19.578,374.125 19.618 M366.881 21.790 C 367.412 21.823,368.237 21.823,368.714 21.789 C 369.192 21.756,368.758 21.729,367.750 21.729 C 366.742 21.729,366.351 21.757,366.881 21.790 M87.545 28.833 C 87.545 29.246,87.578 29.415,87.618 29.208 C 87.657 29.002,87.657 28.665,87.618 28.458 C 87.578 28.252,87.545 28.421,87.545 28.833 M85.229 32.250 C 85.229 33.258,85.257 33.649,85.290 33.119 C 85.323 32.588,85.323 31.763,85.289 31.286 C 85.256 30.808,85.229 31.242,85.229 32.250 M84.166 36.701 C 84.120 37.682,84.142 38.425,84.215 38.353 C 84.287 38.280,84.324 37.477,84.297 36.569 L 84.248 34.917 84.166 36.701 M306.333 37.333 L 304.583 37.435 306.282 37.467 C 307.271 37.486,308.023 37.430,308.083 37.333 C 308.140 37.242,308.163 37.181,308.135 37.199 C 308.107 37.217,307.296 37.278,306.333 37.333 M16.219 37.458 C 18.128 37.485,21.203 37.485,23.053 37.458 C 24.903 37.431,23.342 37.409,19.583 37.409 C 15.825 37.409,14.311 37.431,16.219 37.458 M166.883 37.458 C 167.690 37.488,168.965 37.488,169.717 37.457 C 170.468 37.426,169.808 37.401,168.250 37.402 C 166.692 37.402,166.077 37.427,166.883 37.458 M177.121 37.454 C 177.417 37.490,177.942 37.491,178.288 37.455 C 178.634 37.419,178.392 37.389,177.750 37.388 C 177.108 37.387,176.825 37.417,177.121 37.454 M197.885 37.458 C 199.335 37.486,201.660 37.486,203.052 37.458 C 204.444 37.430,203.258 37.407,200.417 37.407 C 197.575 37.408,196.436 37.430,197.885 37.458 M318.125 37.457 C 318.790 37.489,319.877 37.489,320.542 37.457 C 321.206 37.425,320.662 37.400,319.333 37.400 C 318.004 37.400,317.460 37.425,318.125 37.457 M117.556 39.500 C 117.556 40.188,117.585 40.469,117.621 40.125 C 117.657 39.781,117.657 39.219,117.621 38.875 C 117.585 38.531,117.556 38.813,117.556 39.500 M162.629 38.456 C 163.021 38.491,163.621 38.490,163.963 38.454 C 164.304 38.419,163.983 38.390,163.250 38.390 C 162.517 38.391,162.237 38.420,162.629 38.456 M180.542 38.455 C 180.885 38.491,181.448 38.491,181.792 38.455 C 182.135 38.419,181.854 38.389,181.167 38.389 C 180.479 38.389,180.198 38.419,180.542 38.455 M301.875 38.455 C 302.219 38.491,302.781 38.491,303.125 38.455 C 303.469 38.419,303.188 38.389,302.500 38.389 C 301.813 38.389,301.531 38.419,301.875 38.455 M322.792 38.451 C 322.998 38.491,323.335 38.491,323.542 38.451 C 323.748 38.411,323.579 38.379,323.167 38.379 C 322.754 38.379,322.585 38.411,322.792 38.451 M40.723 40.667 C 40.723 41.354,40.752 41.635,40.788 41.292 C 40.824 40.948,40.824 40.385,40.788 40.042 C 40.752 39.698,40.723 39.979,40.723 40.667 M183.209 40.083 C 183.211 40.450,183.245 40.580,183.285 40.373 C 183.324 40.166,183.323 39.866,183.281 39.706 C 183.239 39.547,183.207 39.717,183.209 40.083 M81.875 44.417 C 81.877 44.783,81.911 44.914,81.951 44.706 C 81.991 44.499,81.990 44.199,81.948 44.040 C 81.906 43.880,81.874 44.050,81.875 44.417 M101.888 45.083 C 101.889 45.725,101.919 45.967,101.955 45.621 C 101.991 45.275,101.990 44.750,101.954 44.455 C 101.917 44.159,101.887 44.442,101.888 45.083 M152.621 44.120 C 152.917 44.157,153.442 44.158,153.788 44.122 C 154.134 44.086,153.892 44.055,153.250 44.055 C 152.608 44.054,152.325 44.083,152.621 44.120 M187.960 44.118 C 188.168 44.158,188.468 44.156,188.627 44.115 C 188.786 44.073,188.617 44.040,188.250 44.042 C 187.883 44.044,187.753 44.078,187.960 44.118 M292.625 44.118 C 292.831 44.157,293.169 44.157,293.375 44.118 C 293.581 44.078,293.412 44.045,293.000 44.045 C 292.587 44.045,292.419 44.078,292.625 44.118 M331.955 44.120 C 332.250 44.157,332.775 44.158,333.121 44.122 C 333.467 44.086,333.225 44.055,332.583 44.055 C 331.942 44.054,331.659 44.083,331.955 44.120 M42.890 46.250 C 42.891 46.983,42.920 47.263,42.956 46.871 C 42.991 46.479,42.990 45.879,42.954 45.537 C 42.919 45.196,42.890 45.517,42.890 46.250 M115.375 45.583 C 115.377 45.950,115.411 46.080,115.451 45.873 C 115.491 45.666,115.490 45.366,115.448 45.206 C 115.406 45.047,115.374 45.217,115.375 45.583 M190.455 45.120 C 190.750 45.157,191.275 45.158,191.621 45.122 C 191.967 45.086,191.725 45.055,191.083 45.055 C 190.442 45.054,190.159 45.083,190.455 45.120 M62.889 47.333 C 62.889 48.021,62.919 48.302,62.955 47.958 C 62.991 47.615,62.991 47.052,62.955 46.708 C 62.919 46.365,62.889 46.646,62.889 47.333 M148.712 47.833 C 148.712 48.246,148.745 48.415,148.784 48.208 C 148.824 48.002,148.824 47.665,148.784 47.458 C 148.745 47.252,148.712 47.421,148.712 47.833 M114.221 48.417 C 114.222 49.058,114.252 49.300,114.288 48.955 C 114.324 48.609,114.324 48.084,114.287 47.788 C 114.250 47.492,114.221 47.775,114.221 48.417 M79.728 51.167 C 79.728 52.129,79.756 52.523,79.790 52.042 C 79.823 51.560,79.823 50.773,79.790 50.292 C 79.756 49.810,79.728 50.204,79.728 51.167 M146.542 51.250 C 146.544 51.617,146.578 51.747,146.618 51.540 C 146.658 51.332,146.656 51.032,146.615 50.873 C 146.573 50.714,146.540 50.883,146.542 51.250 M45.221 52.917 C 45.222 53.558,45.252 53.800,45.288 53.455 C 45.324 53.109,45.324 52.584,45.287 52.288 C 45.250 51.992,45.221 52.275,45.221 52.917 M145.379 53.333 C 145.379 53.746,145.411 53.915,145.451 53.708 C 145.491 53.502,145.491 53.165,145.451 52.958 C 145.411 52.752,145.379 52.921,145.379 53.333 M111.998 55.117 C 111.953 55.778,111.977 56.258,112.050 56.184 C 112.124 56.110,112.160 55.570,112.132 54.983 L 112.080 53.917 111.998 55.117 M130.879 54.667 C 130.879 55.079,130.911 55.248,130.951 55.042 C 130.991 54.835,130.991 54.498,130.951 54.292 C 130.911 54.085,130.879 54.254,130.879 54.667 M144.372 55.667 C 144.372 55.987,144.406 56.119,144.448 55.958 C 144.490 55.798,144.490 55.535,144.448 55.375 C 144.406 55.215,144.372 55.346,144.372 55.667 M342.542 57.917 C 342.544 58.283,342.578 58.414,342.618 58.206 C 342.658 57.999,342.656 57.699,342.615 57.540 C 342.573 57.380,342.540 57.550,342.542 57.917 M142.057 59.583 C 142.058 60.317,142.087 60.596,142.122 60.204 C 142.157 59.812,142.157 59.212,142.121 58.871 C 142.085 58.529,142.057 58.850,142.057 59.583 M325.889 59.500 C 325.889 60.188,325.919 60.469,325.955 60.125 C 325.991 59.781,325.991 59.219,325.955 58.875 C 325.919 58.531,325.889 58.813,325.889 59.500 M48.562 60.250 C 48.563 61.258,48.590 61.649,48.623 61.119 C 48.657 60.588,48.656 59.763,48.623 59.286 C 48.589 58.808,48.562 59.242,48.562 60.250 M101.035 59.568 C 101.061 59.582,101.229 59.704,101.407 59.839 C 101.676 60.042,101.706 60.043,101.588 59.847 C 101.480 59.668,101.515 59.637,101.731 59.720 C 101.889 59.780,101.977 59.765,101.928 59.686 C 101.879 59.606,101.647 59.542,101.413 59.542 C 101.178 59.542,101.008 59.554,101.035 59.568 M343.333 59.649 C 342.929 59.762,342.917 59.808,342.917 61.258 L 342.917 62.750 343.875 62.800 L 344.833 62.850 344.833 61.175 L 344.833 59.500 344.292 59.517 C 343.994 59.526,343.563 59.585,343.333 59.649 M101.905 61.832 C 101.914 62.669,101.973 62.917,102.167 62.931 C 102.304 62.941,102.326 62.918,102.216 62.880 C 102.097 62.840,101.990 62.388,101.954 61.781 L 101.894 60.750 101.905 61.832 M187.723 61.833 C 187.723 62.521,187.752 62.802,187.788 62.458 C 187.824 62.115,187.824 61.552,187.788 61.208 C 187.752 60.865,187.723 61.146,187.723 61.833 M51.889 69.667 C 51.889 70.354,51.919 70.635,51.955 70.292 C 51.991 69.948,51.991 69.385,51.955 69.042 C 51.919 68.698,51.889 68.979,51.889 69.667 M70.410 68.678 C 70.327 68.811,70.350 68.843,70.474 68.766 C 70.597 68.690,70.674 68.786,70.686 69.032 C 70.702 69.341,70.721 69.356,70.785 69.107 C 70.885 68.720,70.591 68.384,70.410 68.678 M70.692 70.615 C 70.678 71.274,70.723 71.849,70.792 71.891 C 70.860 71.934,70.895 71.582,70.869 71.109 C 70.784 69.577,70.717 69.390,70.692 70.615 M73.056 71.667 C 73.056 72.354,73.085 72.635,73.121 72.292 C 73.157 71.948,73.157 71.385,73.121 71.042 C 73.085 70.698,73.056 70.979,73.056 71.667 M105.372 72.333 C 105.372 72.654,105.406 72.785,105.448 72.625 C 105.490 72.465,105.490 72.202,105.448 72.042 C 105.406 71.881,105.372 72.012,105.372 72.333 M123.056 74.000 C 123.056 74.688,123.085 74.969,123.121 74.625 C 123.157 74.281,123.157 73.719,123.121 73.375 C 123.085 73.031,123.056 73.313,123.056 74.000 M187.709 75.583 C 187.711 75.950,187.745 76.080,187.785 75.873 C 187.824 75.666,187.823 75.366,187.781 75.206 C 187.739 75.047,187.707 75.217,187.709 75.583 M55.223 77.333 C 55.223 78.021,55.252 78.302,55.288 77.958 C 55.324 77.615,55.324 77.052,55.288 76.708 C 55.252 76.365,55.223 76.646,55.223 77.333 M142.062 77.917 C 142.063 78.925,142.090 79.316,142.123 78.786 C 142.157 78.255,142.156 77.430,142.123 76.952 C 142.089 76.474,142.062 76.908,142.062 77.917 M162.042 79.083 C 162.044 79.450,162.078 79.580,162.118 79.373 C 162.158 79.166,162.156 78.866,162.115 78.706 C 162.073 78.547,162.040 78.717,162.042 79.083 M143.701 80.615 L 144.319 80.686 144.379 81.801 L 144.439 82.917 144.428 81.750 L 144.417 80.583 143.750 80.563 L 143.083 80.544 143.701 80.615 M163.333 80.731 C 163.333 80.882,163.983 80.947,164.190 80.815 C 164.344 80.718,164.243 80.671,163.875 80.669 C 163.577 80.668,163.333 80.695,163.333 80.731 M57.395 83.500 C 57.395 84.462,57.423 84.856,57.456 84.375 C 57.490 83.894,57.490 83.106,57.456 82.625 C 57.423 82.144,57.395 82.537,57.395 83.500 M323.667 84.000 L 322.417 84.107 323.615 84.137 C 324.274 84.153,324.860 84.092,324.917 84.000 C 324.973 83.908,324.996 83.847,324.968 83.863 C 324.940 83.880,324.354 83.941,323.667 84.000 M145.379 84.667 C 145.379 85.079,145.411 85.248,145.451 85.042 C 145.491 84.835,145.491 84.498,145.451 84.292 C 145.411 84.085,145.379 84.254,145.379 84.667 M168.296 84.122 C 168.688 84.157,169.288 84.157,169.629 84.121 C 169.971 84.085,169.650 84.057,168.917 84.057 C 168.183 84.058,167.904 84.087,168.296 84.122 M178.208 84.121 C 178.552 84.157,179.115 84.157,179.458 84.121 C 179.802 84.085,179.521 84.056,178.833 84.056 C 178.146 84.056,177.865 84.085,178.208 84.121 M146.487 86.792 C 146.566 87.367,146.578 87.379,146.633 86.938 C 146.666 86.675,146.627 86.394,146.547 86.313 C 146.463 86.229,146.437 86.434,146.487 86.792 M93.003 90.292 C 93.004 90.625,93.046 90.686,93.154 90.515 C 93.236 90.386,93.264 90.180,93.217 90.057 C 93.082 89.704,93.000 89.794,93.003 90.292 M291.333 91.260 C 291.333 91.494,291.401 91.644,291.484 91.593 C 291.567 91.542,291.596 91.350,291.548 91.167 C 291.428 90.708,291.333 90.749,291.333 91.260 M336.000 92.985 L 335.083 93.083 335.034 94.125 L 334.984 95.167 335.992 95.167 L 337.000 95.167 337.000 94.000 C 337.000 93.358,336.981 92.846,336.958 92.860 C 336.935 92.875,336.504 92.932,336.000 92.985 M293.667 95.250 L 293.667 96.333 294.750 96.333 L 295.833 96.333 295.853 95.792 C 295.901 94.428,295.679 94.167,294.468 94.167 L 293.667 94.167 293.667 95.250 M297.208 96.282 C 297.369 96.323,297.631 96.323,297.792 96.282 C 297.952 96.240,297.821 96.205,297.500 96.205 C 297.179 96.205,297.048 96.240,297.208 96.282 M331.794 96.285 C 332.001 96.324,332.301 96.323,332.460 96.281 C 332.620 96.239,332.450 96.207,332.083 96.209 C 331.717 96.211,331.586 96.245,331.794 96.285 M192.148 100.125 C 192.193 100.469,192.258 100.618,192.294 100.456 C 192.329 100.295,192.436 100.210,192.530 100.268 C 192.624 100.327,192.572 100.178,192.415 99.937 C 192.051 99.382,192.052 99.381,192.148 100.125 M11.667 101.306 C 11.667 101.596,11.737 101.833,11.822 101.833 C 11.908 101.833,11.941 101.629,11.895 101.379 C 11.777 100.727,11.667 100.691,11.667 101.306 " stroke="none" fill="#98bcfc" fill-rule="evenodd"></path><path id="path4" d="M253.500 18.471 C 253.500 18.547,253.725 18.576,254.000 18.536 C 254.275 18.495,254.500 18.433,254.500 18.398 C 254.500 18.362,254.275 18.333,254.000 18.333 C 253.725 18.333,253.500 18.395,253.500 18.471 M374.125 19.618 C 374.331 19.657,374.669 19.657,374.875 19.618 C 375.081 19.578,374.912 19.545,374.500 19.545 C 374.087 19.545,373.919 19.578,374.125 19.618 M366.881 21.790 C 367.412 21.823,368.237 21.823,368.714 21.789 C 369.192 21.756,368.758 21.729,367.750 21.729 C 366.742 21.729,366.351 21.757,366.881 21.790 M87.545 28.833 C 87.545 29.246,87.578 29.415,87.618 29.208 C 87.657 29.002,87.657 28.665,87.618 28.458 C 87.578 28.252,87.545 28.421,87.545 28.833 M85.229 32.250 C 85.229 33.258,85.257 33.649,85.290 33.119 C 85.323 32.588,85.323 31.763,85.289 31.286 C 85.256 30.808,85.229 31.242,85.229 32.250 M84.166 36.701 C 84.120 37.682,84.142 38.425,84.215 38.353 C 84.287 38.280,84.324 37.477,84.297 36.569 L 84.248 34.917 84.166 36.701 M306.333 37.333 L 304.583 37.435 306.282 37.467 C 307.271 37.486,308.023 37.430,308.083 37.333 C 308.140 37.242,308.163 37.181,308.135 37.199 C 308.107 37.217,307.296 37.278,306.333 37.333 M16.219 37.458 C 18.128 37.485,21.203 37.485,23.053 37.458 C 24.903 37.431,23.342 37.409,19.583 37.409 C 15.825 37.409,14.311 37.431,16.219 37.458 M166.883 37.458 C 167.690 37.488,168.965 37.488,169.717 37.457 C 170.468 37.426,169.808 37.401,168.250 37.402 C 166.692 37.402,166.077 37.427,166.883 37.458 M177.121 37.454 C 177.417 37.490,177.942 37.491,178.288 37.455 C 178.634 37.419,178.392 37.389,177.750 37.388 C 177.108 37.387,176.825 37.417,177.121 37.454 M197.885 37.458 C 199.335 37.486,201.660 37.486,203.052 37.458 C 204.444 37.430,203.258 37.407,200.417 37.407 C 197.575 37.408,196.436 37.430,197.885 37.458 M318.125 37.457 C 318.790 37.489,319.877 37.489,320.542 37.457 C 321.206 37.425,320.662 37.400,319.333 37.400 C 318.004 37.400,317.460 37.425,318.125 37.457 M117.556 39.500 C 117.556 40.188,117.585 40.469,117.621 40.125 C 117.657 39.781,117.657 39.219,117.621 38.875 C 117.585 38.531,117.556 38.813,117.556 39.500 M162.629 38.456 C 163.021 38.491,163.621 38.490,163.963 38.454 C 164.304 38.419,163.983 38.390,163.250 38.390 C 162.517 38.391,162.237 38.420,162.629 38.456 M180.542 38.455 C 180.885 38.491,181.448 38.491,181.792 38.455 C 182.135 38.419,181.854 38.389,181.167 38.389 C 180.479 38.389,180.198 38.419,180.542 38.455 M301.875 38.455 C 302.219 38.491,302.781 38.491,303.125 38.455 C 303.469 38.419,303.188 38.389,302.500 38.389 C 301.813 38.389,301.531 38.419,301.875 38.455 M322.792 38.451 C 322.998 38.491,323.335 38.491,323.542 38.451 C 323.748 38.411,323.579 38.379,323.167 38.379 C 322.754 38.379,322.585 38.411,322.792 38.451 M40.723 40.667 C 40.723 41.354,40.752 41.635,40.788 41.292 C 40.824 40.948,40.824 40.385,40.788 40.042 C 40.752 39.698,40.723 39.979,40.723 40.667 M183.209 40.083 C 183.211 40.450,183.245 40.580,183.285 40.373 C 183.324 40.166,183.323 39.866,183.281 39.706 C 183.239 39.547,183.207 39.717,183.209 40.083 M81.875 44.417 C 81.877 44.783,81.911 44.914,81.951 44.706 C 81.991 44.499,81.990 44.199,81.948 44.040 C 81.906 43.880,81.874 44.050,81.875 44.417 M101.888 45.083 C 101.889 45.725,101.919 45.967,101.955 45.621 C 101.991 45.275,101.990 44.750,101.954 44.455 C 101.917 44.159,101.887 44.442,101.888 45.083 M152.621 44.120 C 152.917 44.157,153.442 44.158,153.788 44.122 C 154.134 44.086,153.892 44.055,153.250 44.055 C 152.608 44.054,152.325 44.083,152.621 44.120 M187.960 44.118 C 188.168 44.158,188.468 44.156,188.627 44.115 C 188.786 44.073,188.617 44.040,188.250 44.042 C 187.883 44.044,187.753 44.078,187.960 44.118 M292.625 44.118 C 292.831 44.157,293.169 44.157,293.375 44.118 C 293.581 44.078,293.412 44.045,293.000 44.045 C 292.587 44.045,292.419 44.078,292.625 44.118 M331.955 44.120 C 332.250 44.157,332.775 44.158,333.121 44.122 C 333.467 44.086,333.225 44.055,332.583 44.055 C 331.942 44.054,331.659 44.083,331.955 44.120 M42.890 46.250 C 42.891 46.983,42.920 47.263,42.956 46.871 C 42.991 46.479,42.990 45.879,42.954 45.537 C 42.919 45.196,42.890 45.517,42.890 46.250 M115.375 45.583 C 115.377 45.950,115.411 46.080,115.451 45.873 C 115.491 45.666,115.490 45.366,115.448 45.206 C 115.406 45.047,115.374 45.217,115.375 45.583 M190.455 45.120 C 190.750 45.157,191.275 45.158,191.621 45.122 C 191.967 45.086,191.725 45.055,191.083 45.055 C 190.442 45.054,190.159 45.083,190.455 45.120 M62.889 47.333 C 62.889 48.021,62.919 48.302,62.955 47.958 C 62.991 47.615,62.991 47.052,62.955 46.708 C 62.919 46.365,62.889 46.646,62.889 47.333 M148.712 47.833 C 148.712 48.246,148.745 48.415,148.784 48.208 C 148.824 48.002,148.824 47.665,148.784 47.458 C 148.745 47.252,148.712 47.421,148.712 47.833 M114.221 48.417 C 114.222 49.058,114.252 49.300,114.288 48.955 C 114.324 48.609,114.324 48.084,114.287 47.788 C 114.250 47.492,114.221 47.775,114.221 48.417 M79.728 51.167 C 79.728 52.129,79.756 52.523,79.790 52.042 C 79.823 51.560,79.823 50.773,79.790 50.292 C 79.756 49.810,79.728 50.204,79.728 51.167 M146.542 51.250 C 146.544 51.617,146.578 51.747,146.618 51.540 C 146.658 51.332,146.656 51.032,146.615 50.873 C 146.573 50.714,146.540 50.883,146.542 51.250 M45.221 52.917 C 45.222 53.558,45.252 53.800,45.288 53.455 C 45.324 53.109,45.324 52.584,45.287 52.288 C 45.250 51.992,45.221 52.275,45.221 52.917 M145.379 53.333 C 145.379 53.746,145.411 53.915,145.451 53.708 C 145.491 53.502,145.491 53.165,145.451 52.958 C 145.411 52.752,145.379 52.921,145.379 53.333 M111.998 55.117 C 111.953 55.778,111.977 56.258,112.050 56.184 C 112.124 56.110,112.160 55.570,112.132 54.983 L 112.080 53.917 111.998 55.117 M130.879 54.667 C 130.879 55.079,130.911 55.248,130.951 55.042 C 130.991 54.835,130.991 54.498,130.951 54.292 C 130.911 54.085,130.879 54.254,130.879 54.667 M144.372 55.667 C 144.372 55.987,144.406 56.119,144.448 55.958 C 144.490 55.798,144.490 55.535,144.448 55.375 C 144.406 55.215,144.372 55.346,144.372 55.667 M342.542 57.917 C 342.544 58.283,342.578 58.414,342.618 58.206 C 342.658 57.999,342.656 57.699,342.615 57.540 C 342.573 57.380,342.540 57.550,342.542 57.917 M142.057 59.583 C 142.058 60.317,142.087 60.596,142.122 60.204 C 142.157 59.812,142.157 59.212,142.121 58.871 C 142.085 58.529,142.057 58.850,142.057 59.583 M325.889 59.500 C 325.889 60.188,325.919 60.469,325.955 60.125 C 325.991 59.781,325.991 59.219,325.955 58.875 C 325.919 58.531,325.889 58.813,325.889 59.500 M48.562 60.250 C 48.563 61.258,48.590 61.649,48.623 61.119 C 48.657 60.588,48.656 59.763,48.623 59.286 C 48.589 58.808,48.562 59.242,48.562 60.250 M101.035 59.568 C 101.061 59.582,101.229 59.704,101.407 59.839 C 101.676 60.042,101.706 60.043,101.588 59.847 C 101.480 59.668,101.515 59.637,101.731 59.720 C 101.889 59.780,101.977 59.765,101.928 59.686 C 101.879 59.606,101.647 59.542,101.413 59.542 C 101.178 59.542,101.008 59.554,101.035 59.568 M343.333 59.649 C 342.929 59.762,342.917 59.808,342.917 61.258 L 342.917 62.750 343.875 62.800 L 344.833 62.850 344.833 61.175 L 344.833 59.500 344.292 59.517 C 343.994 59.526,343.563 59.585,343.333 59.649 M101.905 61.832 C 101.914 62.669,101.973 62.917,102.167 62.931 C 102.304 62.941,102.326 62.918,102.216 62.880 C 102.097 62.840,101.990 62.388,101.954 61.781 L 101.894 60.750 101.905 61.832 M187.723 61.833 C 187.723 62.521,187.752 62.802,187.788 62.458 C 187.824 62.115,187.824 61.552,187.788 61.208 C 187.752 60.865,187.723 61.146,187.723 61.833 M51.889 69.667 C 51.889 70.354,51.919 70.635,51.955 70.292 C 51.991 69.948,51.991 69.385,51.955 69.042 C 51.919 68.698,51.889 68.979,51.889 69.667 M70.410 68.678 C 70.327 68.811,70.350 68.843,70.474 68.766 C 70.597 68.690,70.674 68.786,70.686 69.032 C 70.702 69.341,70.721 69.356,70.785 69.107 C 70.885 68.720,70.591 68.384,70.410 68.678 M70.692 70.615 C 70.678 71.274,70.723 71.849,70.792 71.891 C 70.860 71.934,70.895 71.582,70.869 71.109 C 70.784 69.577,70.717 69.390,70.692 70.615 M73.056 71.667 C 73.056 72.354,73.085 72.635,73.121 72.292 C 73.157 71.948,73.157 71.385,73.121 71.042 C 73.085 70.698,73.056 70.979,73.056 71.667 M105.372 72.333 C 105.372 72.654,105.406 72.785,105.448 72.625 C 105.490 72.465,105.490 72.202,105.448 72.042 C 105.406 71.881,105.372 72.012,105.372 72.333 M123.056 74.000 C 123.056 74.688,123.085 74.969,123.121 74.625 C 123.157 74.281,123.157 73.719,123.121 73.375 C 123.085 73.031,123.056 73.313,123.056 74.000 M187.709 75.583 C 187.711 75.950,187.745 76.080,187.785 75.873 C 187.824 75.666,187.823 75.366,187.781 75.206 C 187.739 75.047,187.707 75.217,187.709 75.583 M55.223 77.333 C 55.223 78.021,55.252 78.302,55.288 77.958 C 55.324 77.615,55.324 77.052,55.288 76.708 C 55.252 76.365,55.223 76.646,55.223 77.333 M142.062 77.917 C 142.063 78.925,142.090 79.316,142.123 78.786 C 142.157 78.255,142.156 77.430,142.123 76.952 C 142.089 76.474,142.062 76.908,142.062 77.917 M162.042 79.083 C 162.044 79.450,162.078 79.580,162.118 79.373 C 162.158 79.166,162.156 78.866,162.115 78.706 C 162.073 78.547,162.040 78.717,162.042 79.083 M143.701 80.615 L 144.319 80.686 144.379 81.801 L 144.439 82.917 144.428 81.750 L 144.417 80.583 143.750 80.563 L 143.083 80.544 143.701 80.615 M163.333 80.731 C 163.333 80.882,163.983 80.947,164.190 80.815 C 164.344 80.718,164.243 80.671,163.875 80.669 C 163.577 80.668,163.333 80.695,163.333 80.731 M57.395 83.500 C 57.395 84.462,57.423 84.856,57.456 84.375 C 57.490 83.894,57.490 83.106,57.456 82.625 C 57.423 82.144,57.395 82.537,57.395 83.500 M323.667 84.000 L 322.417 84.107 323.615 84.137 C 324.274 84.153,324.860 84.092,324.917 84.000 C 324.973 83.908,324.996 83.847,324.968 83.863 C 324.940 83.880,324.354 83.941,323.667 84.000 M145.379 84.667 C 145.379 85.079,145.411 85.248,145.451 85.042 C 145.491 84.835,145.491 84.498,145.451 84.292 C 145.411 84.085,145.379 84.254,145.379 84.667 M168.296 84.122 C 168.688 84.157,169.288 84.157,169.629 84.121 C 169.971 84.085,169.650 84.057,168.917 84.057 C 168.183 84.058,167.904 84.087,168.296 84.122 M178.208 84.121 C 178.552 84.157,179.115 84.157,179.458 84.121 C 179.802 84.085,179.521 84.056,178.833 84.056 C 178.146 84.056,177.865 84.085,178.208 84.121 M146.487 86.792 C 146.566 87.367,146.578 87.379,146.633 86.938 C 146.666 86.675,146.627 86.394,146.547 86.313 C 146.463 86.229,146.437 86.434,146.487 86.792 M93.003 90.292 C 93.004 90.625,93.046 90.686,93.154 90.515 C 93.236 90.386,93.264 90.180,93.217 90.057 C 93.082 89.704,93.000 89.794,93.003 90.292 M291.333 91.260 C 291.333 91.494,291.401 91.644,291.484 91.593 C 291.567 91.542,291.596 91.350,291.548 91.167 C 291.428 90.708,291.333 90.749,291.333 91.260 M336.000 92.985 L 335.083 93.083 335.034 94.125 L 334.984 95.167 335.992 95.167 L 337.000 95.167 337.000 94.000 C 337.000 93.358,336.981 92.846,336.958 92.860 C 336.935 92.875,336.504 92.932,336.000 92.985 M293.667 95.250 L 293.667 96.333 294.750 96.333 L 295.833 96.333 295.853 95.792 C 295.901 94.428,295.679 94.167,294.468 94.167 L 293.667 94.167 293.667 95.250 M297.208 96.282 C 297.369 96.323,297.631 96.323,297.792 96.282 C 297.952 96.240,297.821 96.205,297.500 96.205 C 297.179 96.205,297.048 96.240,297.208 96.282 M331.794 96.285 C 332.001 96.324,332.301 96.323,332.460 96.281 C 332.620 96.239,332.450 96.207,332.083 96.209 C 331.717 96.211,331.586 96.245,331.794 96.285 M192.148 100.125 C 192.193 100.469,192.258 100.618,192.294 100.456 C 192.329 100.295,192.436 100.210,192.530 100.268 C 192.624 100.327,192.572 100.178,192.415 99.937 C 192.051 99.382,192.052 99.381,192.148 100.125 M11.667 101.306 C 11.667 101.596,11.737 101.833,11.822 101.833 C 11.908 101.833,11.941 101.629,11.895 101.379 C 11.777 100.727,11.667 100.691,11.667 101.306 " stroke="none" fill="#98bcfc" fill-rule="evenodd"></path></g></svg>