<?xml version="1.0" encoding="UTF-8" standalone="yes"?>
<!-- Created with sK1/UniConvertor (http://sk1project.org/) -->
<svg xmlns="http://www.w3.org/2000/svg" xmlns:xlink="http://www.w3.org/1999/xlink"
  width="287.2pt" height="152.8pt" viewBox="0 50 287.2 252.8"
  fill-rule="evenodd">
<g>
<path style="stroke:none; fill:#92bdff" d="M 8.59384 172.822C 1.28819 178.733 13.5701 188.186 19.5173 182.594C 26.4556 176.071 14.7193 167.866 8.59384 172.822M 160.482 177.622C 157.649 179.866 159.2 188.73 159.2 192C 159.2 204.814 157.264 219.347 159.318 231.985C 160 236.174 166.036 237.386 169.346 235.178C 172.673 232.958 171.2 225.05 171.2 221.6C 171.2 209.083 174.498 191.283 170.946 179.318C 169.985 176.082 162.826 175.766 160.482 177.622M 182.882 177.622C 180.137 179.797 181.6 188.05 181.6 191.2L 181.6 221.6C 181.6 225.17 180.533 230.887 182.194 234.146C 183.686 237.071 190.387 236.536 192.546 234.718C 195.699 232.06 194.4 225.266 194.4 221.6C 194.4 209.27 197.843 191.021 194.053 179.318C 192.985 176.021 185.306 175.702 182.882 177.622M 258.4 192C 250.688 192.427 250.688 202.773 258.4 203.2L 258.4 225.6C 258.4 228.245 257.615 232.65 259.682 234.718C 262.264 237.298 269.102 236.412 270.146 232.713C 272.559 224.161 270.4 212.097 270.4 203.2C 282.257 203.191 282.344 192.01 270.4 192C 270.4 187.246 270.954 182.181 269.6 177.6C 259.954 179.811 258.4 182.436 258.4 192M 26.4 183.2L 42.5734 226.4C 44.6243 232.086 48.1792 239.054 55.6877 235.518C 60.5232 233.239 61.5315 223.281 64.8 219.2C 66.2008 225.255 70.1945 241.242 79.6679 235.181C 83.584 232.675 84.908 224.862 86.4408 220.8C 90.9576 208.828 99.6384 195.778 101.6 183.2C 98.1128 183.2 91.4656 181.918 88.5192 184.022C 79.9794 190.122 81.7664 208.385 74.4 216C 74.185 211.069 71.0708 206.18 71.1432 201.464C 71.2288 195.89 74.835 188.847 76 183.2C 72.5014 183.2 65.994 181.946 63.1031 184.254C 60.815 186.082 60.6338 190.189 59.8358 192.8C 57.481 200.506 53.9802 207.978 52.8 216C 46.2818 209.982 42.0163 191.891 40 183.2L 26.4 183.2M 136 229.6C 137.818 235.698 148.328 239.922 149.494 231.196C 150.847 221.059 152.05 203.493 149.346 193.647C 147.443 186.721 139.55 191.271 138.4 196C 132.587 194.071 129.076 189.207 122.4 190.084C 118.517 190.594 115.346 191.794 112.003 193.818C 86.9088 209.014 113.135 250.454 136 229.6M 211.2 232C 215.155 232.243 218.399 234.915 222.4 235.381C 229.825 236.245 234.801 233.195 241.6 231.2C 242.977 213.158 217.822 235.173 215.2 216L 236.8 216C 239.128 216 243.158 216.73 245.118 215.178C 250.265 211.101 243.554 198.63 239.916 195.8C 222.451 182.21 200.724 195.178 203.347 216.8C 204.122 223.19 208.663 226.554 211.2 232M 9.05432 191.222C 5.93594 193.303 7.2 199.991 7.2 203.2C 7.2 211.92 4.8851 224.463 7.61111 232.753C 8.93496 236.778 15.831 237.079 18.9457 234.946C 22.0494 232.819 20.8 226.436 20.8 223.2C 20.8 214.252 22.9134 202.269 20.5457 193.647C 19.4671 189.719 12.0503 189.223 9.05432 191.222z"/>
<path style="stroke:none; fill:#ffffff" d="M 215.2 206.4C 221.15 208.159 228.217 207.2 234.4 207.2C 231.635 195.67 220 198.487 215.2 206.4M 122.4 200.523C 108.44 204.501 113.261 228.713 128 224.156C 141.458 219.995 136.194 196.592 122.4 200.523z"/>
<path style="stroke:none; fill:#cfcde3" d="M 246.666 206.934C 246.622 206.978 246.578 207.822 246.934 207.466C 246.978 207.422 247.022 206.578 246.666 206.934z"/>
</g>
</svg>